<svg xmlns="http://www.w3.org/2000/svg" xmlns:xlink="http://www.w3.org/1999/xlink" version="1.1" x="0px" y="0px" viewBox="0 0 100 100"  xml:space="preserve">
<path fill="#0563bb" d="M90.15,69.15c-0.37,0-0.72,0.09-1.04,0.24l-6.71-6.71c-0.02-0.02-0.04-0.03-0.06-0.05c-0.01-0.01-0.02-0.01-0.03-0.02  c-0.01-0.01-0.02-0.02-0.03-0.02c-0.01-0.01-0.02-0.01-0.03-0.02c-0.01-0.01-0.02-0.01-0.03-0.02c-0.01-0.01-0.02-0.01-0.03-0.02  c-0.01-0.01-0.02-0.01-0.03-0.02c-0.01,0-0.02-0.01-0.03-0.01c-0.01,0-0.02-0.01-0.04-0.01c-0.01,0-0.02-0.01-0.03-0.01  c-0.01,0-0.03-0.01-0.04-0.01c-0.01,0-0.02,0-0.04-0.01c-0.01,0-0.02,0-0.04-0.01c-0.02,0-0.04,0-0.07,0c0,0-0.01,0-0.01,0H74.4  c3.4-2.02,6.55-4.47,9.4-7.32l3.72-3.72c0.38-0.38,0.59-0.88,0.59-1.42c0-0.54-0.21-1.04-0.59-1.42l-3.72-3.72  c-2.85-2.85-5.99-5.3-9.4-7.32h7.47c0.03,0,0.05,0,0.07,0c0.01,0,0.02,0,0.03,0c0.01,0,0.03,0,0.04-0.01c0.01,0,0.03-0.01,0.04-0.01  c0.01,0,0.02-0.01,0.03-0.01c0.01,0,0.02-0.01,0.04-0.01c0.01,0,0.02-0.01,0.03-0.01c0.01,0,0.02-0.01,0.03-0.02  c0.01-0.01,0.02-0.01,0.03-0.02c0.01-0.01,0.02-0.01,0.03-0.02c0.01-0.01,0.02-0.01,0.03-0.02c0.01-0.01,0.02-0.02,0.03-0.02  c0.01-0.01,0.02-0.01,0.03-0.02c0.02-0.02,0.04-0.03,0.06-0.05l6.71-6.71c0.31,0.15,0.66,0.24,1.04,0.24c1.3,0,2.35-1.05,2.35-2.35  c0-1.3-1.05-2.35-2.35-2.35c-1.3,0-2.35,1.05-2.35,2.35c0,0.37,0.09,0.72,0.24,1.04l-6.49,6.49h-9.92c-1.19-0.6-2.41-1.16-3.66-1.67  c-2.64-1.07-5.34-1.9-8.1-2.48v-7l7.5-7.5c0.31,0.15,0.66,0.24,1.04,0.24c1.3,0,2.35-1.05,2.35-2.35c0-1.3-1.05-2.35-2.35-2.35  c-1.3,0-2.35,1.05-2.35,2.35c0,0.37,0.09,0.72,0.24,1.04l-7.72,7.72c-0.02,0.02-0.03,0.04-0.05,0.06c-0.01,0.01-0.01,0.02-0.02,0.03  c-0.01,0.01-0.02,0.02-0.02,0.03c-0.01,0.01-0.01,0.02-0.02,0.03c-0.01,0.01-0.01,0.02-0.02,0.03c-0.01,0.01-0.01,0.02-0.02,0.03  c-0.01,0.01-0.01,0.02-0.02,0.03c0,0.01-0.01,0.02-0.01,0.03s-0.01,0.02-0.01,0.04c0,0.01-0.01,0.02-0.01,0.04  c0,0.01-0.01,0.02-0.01,0.04c0,0.01,0,0.03-0.01,0.04c0,0.01,0,0.02,0,0.03c0,0.02,0,0.05,0,0.07v7.02  c-2.5-0.44-5.04-0.68-7.61-0.72V17.51c0.93-0.32,1.59-1.19,1.59-2.22c0-1.3-1.05-2.35-2.35-2.35c-1.3,0-2.35,1.05-2.35,2.35  c0,1.03,0.67,1.91,1.59,2.22v13.36c-2.57,0.04-5.11,0.28-7.61,0.72v-7.02c0-0.02,0-0.05,0-0.07c0-0.01,0-0.02,0-0.03  c0-0.01,0-0.03-0.01-0.04c0-0.01-0.01-0.02-0.01-0.04c0-0.01-0.01-0.02-0.01-0.04c0-0.01-0.01-0.02-0.01-0.04  c0-0.01-0.01-0.02-0.01-0.03c0-0.01-0.01-0.02-0.01-0.03c-0.01-0.01-0.01-0.02-0.02-0.03c-0.01-0.01-0.01-0.02-0.02-0.03  c-0.01-0.01-0.01-0.02-0.02-0.03c-0.01-0.01-0.02-0.02-0.02-0.03c-0.01-0.01-0.01-0.02-0.02-0.03c-0.02-0.02-0.03-0.04-0.05-0.06  l-7.72-7.72c0.15-0.31,0.24-0.66,0.24-1.04c0-1.3-1.05-2.35-2.35-2.35c-1.3,0-2.35,1.05-2.35,2.35c0,1.3,1.05,2.35,2.35,2.35  c0.37,0,0.72-0.09,1.04-0.24l7.5,7.5v7c-2.76,0.58-5.47,1.41-8.1,2.48c-1.25,0.51-2.47,1.06-3.66,1.67h-9.92l-6.49-6.49  c0.15-0.31,0.24-0.66,0.24-1.04c0-1.3-1.05-2.35-2.35-2.35c-1.3,0-2.35,1.05-2.35,2.35c0,1.3,1.05,2.35,2.35,2.35  c0.37,0,0.72-0.09,1.04-0.24l6.71,6.71c0.02,0.02,0.04,0.03,0.06,0.05c0.01,0.01,0.02,0.01,0.03,0.02c0.01,0.01,0.02,0.02,0.03,0.02  c0.01,0.01,0.02,0.01,0.03,0.02c0.01,0.01,0.02,0.01,0.03,0.02c0.01,0.01,0.02,0.01,0.03,0.02c0.01,0.01,0.02,0.01,0.03,0.02  c0.01,0.01,0.02,0.01,0.03,0.01c0.01,0,0.02,0.01,0.04,0.01c0.01,0,0.02,0.01,0.03,0.01c0.01,0,0.02,0.01,0.04,0.01  c0.01,0,0.03,0,0.04,0.01c0.01,0,0.02,0,0.03,0c0.03,0,0.05,0,0.07,0h7.48c-3.4,2.02-6.55,4.47-9.4,7.32l-3.72,3.72  c-0.78,0.78-0.78,2.06,0,2.84l3.72,3.72c2.85,2.85,5.99,5.3,9.4,7.32h-7.48c0,0-0.01,0-0.01,0c-0.02,0-0.04,0-0.07,0  c-0.01,0-0.02,0-0.04,0.01c-0.01,0-0.02,0-0.04,0.01c-0.01,0-0.03,0.01-0.04,0.01c-0.01,0-0.02,0.01-0.03,0.01  c-0.01,0-0.02,0.01-0.04,0.01c-0.01,0-0.02,0.01-0.03,0.01c-0.01,0.01-0.02,0.01-0.03,0.02c-0.01,0.01-0.02,0.01-0.03,0.02  c-0.01,0.01-0.02,0.01-0.03,0.02c-0.01,0.01-0.02,0.01-0.03,0.02c-0.01,0.01-0.02,0.02-0.03,0.02c-0.01,0.01-0.02,0.01-0.03,0.02  c-0.02,0.02-0.04,0.03-0.06,0.05l-6.71,6.71c-0.31-0.15-0.66-0.24-1.04-0.24c-1.3,0-2.35,1.05-2.35,2.35s1.05,2.35,2.35,2.35  c1.3,0,2.35-1.05,2.35-2.35c0-0.37-0.09-0.72-0.24-1.04l6.49-6.49h9.92c1.19,0.6,2.41,1.16,3.66,1.67c2.64,1.07,5.34,1.9,8.1,2.48v7  l-7.5,7.5c-0.31-0.15-0.66-0.24-1.04-0.24c-1.3,0-2.35,1.05-2.35,2.35c0,1.3,1.05,2.35,2.35,2.35c1.3,0,2.35-1.05,2.35-2.35  c0-0.37-0.09-0.72-0.24-1.04l7.72-7.72c0.02-0.02,0.03-0.04,0.05-0.06c0.01-0.01,0.01-0.02,0.02-0.03c0.01-0.01,0.02-0.02,0.02-0.03  c0.01-0.01,0.01-0.02,0.02-0.03c0.01-0.01,0.01-0.02,0.02-0.03c0.01-0.01,0.01-0.02,0.02-0.03c0.01-0.01,0.01-0.02,0.01-0.03  c0.01-0.01,0.01-0.02,0.01-0.03c0-0.01,0.01-0.02,0.01-0.04c0-0.01,0.01-0.02,0.01-0.04c0-0.01,0.01-0.02,0.01-0.04  c0-0.01,0-0.03,0.01-0.04c0-0.01,0-0.02,0-0.03c0-0.02,0-0.05,0-0.07v-7.02c2.5,0.44,5.04,0.68,7.61,0.72v13.36  c-0.92,0.32-1.59,1.19-1.59,2.22c0,1.3,1.05,2.35,2.35,2.35c1.3,0,2.35-1.05,2.35-2.35c0-1.03-0.67-1.91-1.59-2.22V69.13  c2.57-0.04,5.11-0.28,7.61-0.72v7.02c0,0.02,0,0.05,0,0.07c0,0.01,0,0.02,0,0.03c0,0.01,0,0.03,0.01,0.04  c0,0.01,0.01,0.02,0.01,0.04c0,0.01,0.01,0.02,0.01,0.04c0,0.01,0.01,0.02,0.01,0.04c0,0.01,0.01,0.02,0.01,0.03  c0,0.01,0.01,0.02,0.02,0.03c0.01,0.01,0.01,0.02,0.02,0.03c0.01,0.01,0.01,0.02,0.02,0.03c0.01,0.01,0.01,0.02,0.02,0.03  c0.01,0.01,0.02,0.02,0.02,0.03c0.01,0.01,0.01,0.02,0.02,0.03c0.02,0.02,0.03,0.04,0.05,0.06l7.72,7.72  c-0.15,0.31-0.24,0.66-0.24,1.04c0,1.3,1.05,2.35,2.35,2.35c1.3,0,2.35-1.05,2.35-2.35c0-1.3-1.05-2.35-2.35-2.35  c-0.37,0-0.72,0.09-1.04,0.24l-7.5-7.5v-7c2.76-0.58,5.46-1.41,8.1-2.48c1.25-0.51,2.47-1.06,3.66-1.67h9.92l6.49,6.49  c-0.15,0.31-0.24,0.66-0.24,1.04c0,1.3,1.05,2.35,2.35,2.35c1.3,0,2.35-1.05,2.35-2.35S91.45,69.15,90.15,69.15z M26.83,53.93  c-2.16,0-3.93-1.76-3.93-3.93c0-2.16,1.76-3.93,3.93-3.93c2.16,0,3.93,1.76,3.93,3.93C30.75,52.16,28.99,53.93,26.83,53.93z   M38.88,57.54h-2.1c-0.42,0-0.76-0.34-0.76-0.76c0-0.42,0.34-0.76,0.76-0.76h2.1c0.42,0,0.76,0.34,0.76,0.76  C39.64,57.2,39.3,57.54,38.88,57.54z M38.88,54.83h-2.1c-0.42,0-0.76-0.34-0.76-0.76c0-0.42,0.34-0.76,0.76-0.76h2.1  c0.42,0,0.76,0.34,0.76,0.76C39.64,54.49,39.3,54.83,38.88,54.83z M38.88,52.11h-2.1c-0.42,0-0.76-0.34-0.76-0.76  c0-0.42,0.34-0.76,0.76-0.76h2.1c0.42,0,0.76,0.34,0.76,0.76C39.64,51.77,39.3,52.11,38.88,52.11z M38.88,49.4h-2.1  c-0.42,0-0.76-0.34-0.76-0.76c0-0.42,0.34-0.76,0.76-0.76h2.1c0.42,0,0.76,0.34,0.76,0.76C39.64,49.06,39.3,49.4,38.88,49.4z   M38.88,46.69h-2.1c-0.42,0-0.76-0.34-0.76-0.76c0-0.42,0.34-0.76,0.76-0.76h2.1c0.42,0,0.76,0.34,0.76,0.76  C39.64,46.35,39.3,46.69,38.88,46.69z M38.88,43.97h-2.1c-0.42,0-0.76-0.34-0.76-0.76c0-0.42,0.34-0.76,0.76-0.76h2.1  c0.42,0,0.76,0.34,0.76,0.76C39.64,43.64,39.3,43.97,38.88,43.97z M56.03,36.78c0-0.42,0.34-0.76,0.76-0.76  c0.42,0,0.76,0.34,0.76,0.76v2.1c0,0.42-0.34,0.76-0.76,0.76c-0.42,0-0.76-0.34-0.76-0.76V36.78z M53.31,36.78  c0-0.42,0.34-0.76,0.76-0.76c0.42,0,0.76,0.34,0.76,0.76v2.1c0,0.42-0.34,0.76-0.76,0.76c-0.42,0-0.76-0.34-0.76-0.76V36.78z   M50.6,36.78c0-0.42,0.34-0.76,0.76-0.76c0.42,0,0.76,0.34,0.76,0.76v2.1c0,0.42-0.34,0.76-0.76,0.76c-0.42,0-0.76-0.34-0.76-0.76  V36.78z M47.89,36.78c0-0.42,0.34-0.76,0.76-0.76c0.42,0,0.76,0.34,0.76,0.76v2.1c0,0.42-0.34,0.76-0.76,0.76  c-0.42,0-0.76-0.34-0.76-0.76V36.78z M45.17,36.78c0-0.42,0.34-0.76,0.76-0.76c0.42,0,0.76,0.34,0.76,0.76v2.1  c0,0.42-0.34,0.76-0.76,0.76c-0.42,0-0.76-0.34-0.76-0.76V36.78z M42.46,36.78c0-0.42,0.34-0.76,0.76-0.76  c0.42,0,0.76,0.34,0.76,0.76v2.1c0,0.42-0.34,0.76-0.76,0.76c-0.42,0-0.76-0.34-0.76-0.76V36.78z M43.98,63.22  c0,0.42-0.34,0.76-0.76,0.76c-0.42,0-0.76-0.34-0.76-0.76v-2.1c0-0.42,0.34-0.76,0.76-0.76c0.42,0,0.76,0.34,0.76,0.76V63.22z   M46.69,63.22c0,0.42-0.34,0.76-0.76,0.76c-0.42,0-0.76-0.34-0.76-0.76v-2.1c0-0.42,0.34-0.76,0.76-0.76c0.42,0,0.76,0.34,0.76,0.76  V63.22z M49.4,63.22c0,0.42-0.34,0.76-0.76,0.76c-0.42,0-0.76-0.34-0.76-0.76v-2.1c0-0.42,0.34-0.76,0.76-0.76  c0.42,0,0.76,0.34,0.76,0.76V63.22z M52.11,63.22c0,0.42-0.34,0.76-0.76,0.76c-0.42,0-0.76-0.34-0.76-0.76v-2.1  c0-0.42,0.34-0.76,0.76-0.76c0.42,0,0.76,0.34,0.76,0.76V63.22z M54.83,63.22c0,0.42-0.34,0.76-0.76,0.76  c-0.42,0-0.76-0.34-0.76-0.76v-2.1c0-0.42,0.34-0.76,0.76-0.76c0.42,0,0.76,0.34,0.76,0.76V63.22z M57.54,63.22  c0,0.42-0.34,0.76-0.76,0.76c-0.42,0-0.76-0.34-0.76-0.76v-2.1c0-0.42,0.34-0.76,0.76-0.76c0.42,0,0.76,0.34,0.76,0.76V63.22z   M59.4,58.64c0,0.42-0.34,0.76-0.76,0.76H41.36c-0.42,0-0.76-0.34-0.76-0.76V41.36c0-0.42,0.34-0.76,0.76-0.76h17.28  c0.42,0,0.76,0.34,0.76,0.76V58.64z M63.22,57.54h-2.1c-0.42,0-0.76-0.34-0.76-0.76c0-0.42,0.34-0.76,0.76-0.76h2.1  c0.42,0,0.76,0.34,0.76,0.76C63.98,57.2,63.64,57.54,63.22,57.54z M63.22,54.83h-2.1c-0.42,0-0.76-0.34-0.76-0.76  c0-0.42,0.34-0.76,0.76-0.76h2.1c0.42,0,0.76,0.34,0.76,0.76C63.98,54.49,63.64,54.83,63.22,54.83z M63.22,52.11h-2.1  c-0.42,0-0.76-0.34-0.76-0.76c0-0.42,0.34-0.76,0.76-0.76h2.1c0.42,0,0.76,0.34,0.76,0.76C63.98,51.77,63.64,52.11,63.22,52.11z   M63.22,49.4h-2.1c-0.42,0-0.76-0.34-0.76-0.76c0-0.42,0.34-0.76,0.76-0.76h2.1c0.42,0,0.76,0.34,0.76,0.76  C63.98,49.06,63.64,49.4,63.22,49.4z M63.22,46.69h-2.1c-0.42,0-0.76-0.34-0.76-0.76c0-0.42,0.34-0.76,0.76-0.76h2.1  c0.42,0,0.76,0.34,0.76,0.76C63.98,46.35,63.64,46.69,63.22,46.69z M63.22,43.97h-2.1c-0.42,0-0.76-0.34-0.76-0.76  c0-0.42,0.34-0.76,0.76-0.76h2.1c0.42,0,0.76,0.34,0.76,0.76C63.98,43.64,63.64,43.97,63.22,43.97z M69.25,50  c0-2.16,1.76-3.93,3.93-3.93c2.16,0,3.93,1.76,3.93,3.93c0,2.16-1.76,3.93-3.93,3.93C71.01,53.93,69.25,52.16,69.25,50z"/>
</svg>