<svg xmlns="http://www.w3.org/2000/svg" version="1.1" viewBox="-5.0 -15.0 110.0 135.0">
 <path fill="#891e8c" d="m31.957 19.777h5.2461v-6.2188h-2.6055c-0.019531 0.066406-0.039062 0.12891-0.058594 0.19141-0.29297 0.83984-0.91016 1.5703-1.7734 1.9883l-0.007813 0.003907c-0.86328 0.41406-1.8125 0.44141-2.6523 0.14844-0.83984-0.29297-1.5703-0.91016-1.9883-1.7734l-0.003907-0.003907c-0.41406-0.86328-0.44141-1.8164-0.14844-2.6523 0.29297-0.83984 0.91016-1.5703 1.7734-1.9883 0.86719-0.41797 1.8164-0.44531 2.6562-0.14844 0.83984 0.29297 1.5703 0.91016 1.9883 1.7734l0.003907 0.003906c0.085937 0.17969 0.15625 0.36328 0.21094 0.55078h3.5625c0.52734 0 0.95703 0.42969 0.95703 0.95703v7.1758h9.9258v-9.832c-0.18359-0.054687-0.36719-0.12109-0.54688-0.20703l-0.007813-0.003906c-0.86328-0.41797-1.4805-1.1445-1.7734-1.9883-0.29297-0.83984-0.26562-1.7891 0.14844-2.6523l0.003907-0.003906c0.41797-0.86328 1.1445-1.4805 1.9883-1.7734 0.83984-0.29297 1.7891-0.26562 2.6523 0.14844h0.003907c0.86328 0.41797 1.4805 1.1445 1.7734 1.9883 0.29297 0.83984 0.26953 1.7891-0.14844 2.6523l-0.003907 0.007813c-0.41797 0.86328-1.1445 1.4805-1.9883 1.7734-0.0625 0.023438-0.125 0.042969-0.19141 0.058594v9.8242h9.543v-7.1758c0-0.52734 0.42969-0.95703 0.95703-0.95703h3.5625c0.054687-0.1875 0.12109-0.37109 0.21094-0.55078l0.003907-0.003906c0.41797-0.86328 1.1445-1.4766 1.9883-1.7734 0.83984-0.29297 1.7891-0.26562 2.6523 0.14844l0.003906 0.003906c0.86328 0.41797 1.4766 1.1445 1.7734 1.9883 0.29297 0.83594 0.26562 1.7891-0.14844 2.6523l-0.003906 0.007813c-0.41797 0.86328-1.1445 1.4805-1.9883 1.7734-0.83594 0.29297-1.7891 0.26562-2.6523-0.14844l-0.007813-0.003907c-0.86328-0.41797-1.4805-1.1445-1.7734-1.9883-0.023438-0.0625-0.042969-0.125-0.058594-0.19141h-2.6055v6.2188h5.6289c3.3516 0 6.3984 1.3711 8.6055 3.5781s3.5781 5.2539 3.5781 8.6055v5.6289h6.2188v-2.6094c-0.0625-0.019531-0.12891-0.039063-0.19141-0.058594-0.83984-0.29297-1.5703-0.91016-1.9883-1.7734-0.41797-0.86719-0.44531-1.8164-0.14844-2.6602 0.29297-0.83984 0.91016-1.5703 1.7734-1.9883h0.003906c0.86328-0.41406 1.8164-0.44141 2.6523-0.14844 0.83984 0.29297 1.5703 0.91016 1.9883 1.7734l0.003906 0.003906c0.41406 0.86328 0.44141 1.8164 0.14844 2.6523-0.29297 0.83984-0.91016 1.5703-1.7734 1.9883-0.17969 0.085938-0.36719 0.15625-0.55469 0.21094v3.5625c0 0.52734-0.42969 0.95703-0.95703 0.95703h-7.1758v9.543h9.8242c0.019531-0.0625 0.039063-0.12891 0.058594-0.19141 0.29297-0.83984 0.91016-1.5703 1.7734-1.9883h0.003906c0.86328-0.41406 1.8164-0.44141 2.6523-0.14844 0.83984 0.29297 1.5703 0.91016 1.9883 1.7734l0.003906 0.003907c0.41406 0.86328 0.44141 1.8164 0.14844 2.6523-0.29297 0.83984-0.91016 1.5703-1.7734 1.9883-0.86328 0.41797-1.8164 0.44531-2.6562 0.14844-0.83984-0.29297-1.5703-0.91016-1.9883-1.7734-0.085937-0.17969-0.15625-0.36719-0.21094-0.55469h-9.8203v9.9258h7.1758c0.52734 0 0.95703 0.42969 0.95703 0.95703v3.5625c0.1875 0.054687 0.37109 0.125 0.55469 0.21094 0.86328 0.41797 1.4766 1.1445 1.7734 1.9883 0.29297 0.83984 0.26562 1.793-0.14844 2.6562-0.41797 0.86328-1.1445 1.4805-1.9883 1.7734-0.83984 0.29297-1.793 0.26562-2.6562-0.14844-0.86328-0.41797-1.4805-1.1445-1.7734-1.9883-0.29297-0.83984-0.26562-1.793 0.14844-2.6562 0.41797-0.86328 1.1445-1.4805 1.9883-1.7734 0.0625-0.023438 0.125-0.042969 0.19141-0.058594v-2.6055h-6.2188v5.2461c0 3.3516-1.3711 6.3984-3.5781 8.6055-2.207 2.207-5.2539 3.5781-8.6055 3.5781h-5.6289v6.2188h2.6055c0.019531-0.066406 0.039062-0.12891 0.058593-0.19141 0.29297-0.83984 0.91016-1.5703 1.7734-1.9883s1.8164-0.44531 2.6562-0.14844c0.83984 0.29297 1.5703 0.91016 1.9883 1.7734v0.003906c0.41406 0.86328 0.44141 1.8164 0.14844 2.6523-0.29297 0.83984-0.91016 1.5703-1.7734 1.9883l-0.003906 0.003906c-0.86328 0.41406-1.8164 0.44141-2.6523 0.14844-0.83984-0.29297-1.5703-0.91016-1.9883-1.7734-0.085938-0.17969-0.15625-0.36719-0.21094-0.55469h-3.5625c-0.52734 0-0.95703-0.42969-0.95703-0.95703v-7.1758h-9.543v9.8203c0.066407 0.019531 0.12891 0.039063 0.19141 0.058594 0.83984 0.29297 1.5703 0.91016 1.9883 1.7734v0.003906c0.41406 0.86328 0.44141 1.8164 0.14844 2.6523-0.29297 0.83984-0.91016 1.5703-1.7734 1.9883l-0.003907 0.003906c-0.86328 0.41406-1.8164 0.44141-2.6523 0.14844-0.83984-0.29297-1.5703-0.91016-1.9883-1.7734-0.41797-0.86719-0.44531-1.8164-0.14844-2.6562 0.29297-0.83984 0.91016-1.5703 1.7734-1.9883 0.17969-0.085937 0.36719-0.15625 0.55469-0.21094v-9.8203h-9.9258v7.1758c0 0.52734-0.42969 0.95703-0.95703 0.95703h-3.5625c-0.054687 0.1875-0.125 0.37109-0.21094 0.55469-0.41797 0.86328-1.1445 1.4805-1.9883 1.7734-0.83984 0.29297-1.793 0.26562-2.6562-0.14844-0.86328-0.41797-1.4766-1.1445-1.7734-1.9883-0.29297-0.83984-0.26562-1.793 0.14844-2.6562 0.41797-0.86328 1.1445-1.4805 1.9883-1.7734 0.83984-0.29297 1.793-0.26562 2.6602 0.14844 0.86328 0.41797 1.4805 1.1445 1.7734 1.9883 0.023437 0.0625 0.042969 0.125 0.058593 0.19141h2.6055v-6.2188l-5.25-0.003907c-3.3516 0-6.3984-1.3711-8.6055-3.5781-2.207-2.207-3.5781-5.2539-3.5781-8.6055v-5.2461h-6.2188v2.6055c0.0625 0.019531 0.12891 0.039062 0.19141 0.058594 0.83984 0.29297 1.5703 0.91016 1.9883 1.7734s0.44531 1.8164 0.14844 2.6562c-0.29297 0.83984-0.91016 1.5703-1.7734 1.9883-0.86328 0.41797-1.8164 0.44531-2.6562 0.14844-0.83984-0.29297-1.5703-0.91016-1.9883-1.7734-0.41797-0.86328-0.44531-1.8164-0.14844-2.6562 0.29297-0.83984 0.91016-1.5703 1.7734-1.9883 0.17969-0.085937 0.36719-0.15625 0.55469-0.21094v-3.5625c0-0.52734 0.42969-0.95703 0.95703-0.95703h7.1758v-9.9258l-9.8242 0.003906c-0.054687 0.1875-0.125 0.37109-0.21094 0.55469-0.41797 0.86328-1.1445 1.4805-1.9883 1.7734-0.83984 0.29297-1.793 0.26562-2.6602-0.14844-0.86328-0.41797-1.4766-1.1445-1.7734-1.9883-0.29297-0.83984-0.26562-1.7891 0.14844-2.6523l0.003906-0.003906c0.41797-0.86328 1.1445-1.4766 1.9883-1.7734 0.83984-0.29297 1.7891-0.26562 2.6562 0.14844h0.003906c0.86328 0.41797 1.4805 1.1445 1.7734 1.9883 0.023438 0.0625 0.042969 0.125 0.058594 0.19141h9.8203v-9.543h-7.1758c-0.52734 0-0.95703-0.42969-0.95703-0.95703v-3.5625c-0.1875-0.054687-0.37109-0.125-0.55469-0.21094-0.86328-0.41797-1.4766-1.1445-1.7734-1.9883-0.29297-0.83984-0.26562-1.7891 0.14844-2.6523l0.003906-0.003906c0.41797-0.86328 1.1445-1.4805 1.9883-1.7734 0.83984-0.29297 1.7891-0.26562 2.6523 0.14844h0.003906c0.86328 0.41797 1.4805 1.1445 1.7734 1.9883 0.29297 0.83984 0.26563 1.793-0.14844 2.6602-0.41797 0.86328-1.1445 1.4805-1.9883 1.7734-0.0625 0.023438-0.125 0.042969-0.19141 0.058594v2.6094h6.2188v-5.6367c0-3.3516 1.3711-6.3984 3.5781-8.6055 2.2109-2.207 5.2539-3.5742 8.6055-3.5742zm2.8672 4.6484c-2.8594 0-5.4609 1.168-7.3438 3.0547-1.8828 1.8828-3.0547 4.4844-3.0547 7.3438v30.352c0 2.8594 1.168 5.4609 3.0547 7.3477 1.8828 1.8828 4.4844 3.0547 7.3438 3.0547h30.352c2.8594 0 5.4609-1.168 7.3438-3.0547 1.8828-1.8828 3.0547-4.4844 3.0547-7.3477v-30.352c0-2.8594-1.168-5.4609-3.0547-7.3438-1.8828-1.8828-4.4844-3.0547-7.3438-3.0547zm30.352 1.9141h-30.352c-2.332 0-4.4531 0.95703-5.9922 2.4922-1.5391 1.5391-2.4922 3.6602-2.4922 5.9922v30.352c0 2.332 0.95703 4.4531 2.4922 5.9922 1.5391 1.5391 3.6602 2.4922 5.9922 2.4922h30.352c2.332 0 4.4531-0.95703 5.9922-2.4922 1.5391-1.5391 2.4922-3.6602 2.4922-5.9922v-30.352c0-2.332-0.95703-4.4531-2.4922-5.9922-1.5391-1.5391-3.6602-2.4922-5.9922-2.4922zm26.645 23.605c0 0.019532 0.003907 0.035157 0.003907 0.054688s0 0.035156-0.003907 0.054688c0.007813 0.21094 0.058594 0.42578 0.15625 0.62891 0.1875 0.39062 0.51563 0.66797 0.89453 0.80078s0.80859 0.12109 1.1992-0.066406c0.39063-0.1875 0.66797-0.51562 0.80078-0.89453 0.12891-0.36328 0.12109-0.77344-0.046875-1.1523-0.019531-0.03125-0.035157-0.066406-0.046875-0.097656-0.19141-0.36719-0.50781-0.625-0.87109-0.75391-0.36328-0.12891-0.77344-0.12109-1.1523 0.046875-0.03125 0.019532-0.066406 0.035156-0.097656 0.046875-0.36719 0.19141-0.625 0.50781-0.75391 0.87109-0.046875 0.14453-0.078125 0.30469-0.082032 0.46094zm-4.3672 17.23c-0.019531 0-0.035156 0.003907-0.054687 0.003907h-0.054688c-0.16016 0.003906-0.31641 0.035156-0.46484 0.085937-0.37891 0.13281-0.70703 0.41016-0.89453 0.80078s-0.19922 0.82031-0.066406 1.1992c0.13281 0.37891 0.41016 0.70703 0.80078 0.89453s0.82031 0.19922 1.1992 0.066406c0.37891-0.13281 0.70703-0.41016 0.89453-0.80078s0.19922-0.82031 0.066406-1.1992c-0.13281-0.37891-0.41016-0.70703-0.80078-0.89453-0.19922-0.097656-0.41406-0.14844-0.625-0.15625zm-0.10547-33.969h0.054688 0.050781c0.21094-0.007812 0.42578-0.058593 0.62891-0.15625 0.39062-0.1875 0.66797-0.51953 0.80078-0.89453 0.12891-0.36328 0.12109-0.77344-0.046874-1.1523-0.019532-0.03125-0.035157-0.066406-0.046876-0.097656-0.19141-0.36719-0.50781-0.625-0.87109-0.75391s-0.77344-0.12109-1.1523 0.046875c-0.03125 0.019531-0.066406 0.035156-0.097656 0.046875-0.36719 0.19141-0.625 0.50781-0.75391 0.87109-0.13281 0.37891-0.12109 0.80859 0.066407 1.1992s0.51562 0.66797 0.89453 0.80078c0.15234 0.054687 0.3125 0.082031 0.47266 0.089843zm-37.293 58.613c-0.019532 0-0.035157 0.003907-0.054688 0.003907s-0.035156 0-0.054688-0.003907c-0.21094 0.007813-0.42578 0.058594-0.62891 0.15625-0.39062 0.1875-0.66797 0.51953-0.80078 0.89453-0.13281 0.37891-0.12109 0.80859 0.066406 1.1992 0.1875 0.39063 0.51562 0.66797 0.89453 0.80078 0.36328 0.12891 0.77344 0.12109 1.1523-0.046875 0.03125-0.019531 0.066406-0.035157 0.097656-0.046875 0.36719-0.19141 0.625-0.50781 0.75391-0.87109 0.12891-0.36328 0.12109-0.77344-0.046875-1.1523-0.019532-0.03125-0.035156-0.066406-0.046875-0.097656-0.19141-0.36719-0.50781-0.625-0.87109-0.75391-0.14453-0.046875-0.30469-0.078125-0.46094-0.082032zm-17.23-4.3672v-0.054687-0.054688c-0.003907-0.16016-0.035157-0.31641-0.085938-0.46484-0.13281-0.37891-0.41016-0.70703-0.80078-0.89453s-0.82031-0.19922-1.1992-0.066406c-0.37891 0.13281-0.70703 0.41016-0.89453 0.80078s-0.19922 0.82031-0.066406 1.1992c0.13281 0.37891 0.41016 0.70703 0.80078 0.89453s0.82031 0.19922 1.1992 0.066406c0.37891-0.13281 0.70703-0.41016 0.89453-0.80078 0.09375-0.19922 0.14453-0.41406 0.15234-0.625zm33.969-0.10547v0.054688 0.054687c0.007812 0.21094 0.058593 0.42578 0.15625 0.62891 0.1875 0.39062 0.51562 0.66797 0.89453 0.80078 0.36328 0.12891 0.77344 0.12109 1.1523-0.046875 0.03125-0.019532 0.066406-0.035156 0.097656-0.046875 0.36719-0.19141 0.625-0.50781 0.75391-0.87109s0.12109-0.77344-0.046875-1.1523c-0.019531-0.03125-0.035156-0.066406-0.046875-0.097656-0.19141-0.36719-0.50781-0.625-0.87109-0.75391-0.37891-0.13281-0.80859-0.12109-1.1992 0.066406s-0.66797 0.51953-0.80078 0.89453c-0.054687 0.14844-0.082031 0.30859-0.089843 0.46875zm-58.613-37.293v-0.054688-0.054688c-0.003907-0.16016-0.035157-0.31641-0.085938-0.46484-0.12891-0.36328-0.38672-0.67969-0.75391-0.87109-0.035156-0.011719-0.066406-0.027344-0.097656-0.046875-0.37891-0.16797-0.78906-0.17188-1.1523-0.046875-0.36328 0.12891-0.67969 0.38672-0.87109 0.75391-0.011719 0.035157-0.027344 0.066407-0.046875 0.097657-0.16797 0.37891-0.17188 0.78906-0.046875 1.1523 0.13281 0.37891 0.41016 0.70703 0.80078 0.89453s0.82031 0.19922 1.1992 0.066407c0.37891-0.13281 0.70703-0.41016 0.89453-0.80078 0.10156-0.20313 0.15234-0.41406 0.16016-0.625zm4.4727 17.121h-0.054688c-0.019531 0-0.035156 0-0.054687-0.003906-0.21094 0.007813-0.42578 0.058594-0.62891 0.15625-0.39062 0.1875-0.66797 0.51953-0.80078 0.89453-0.13281 0.37891-0.12109 0.80859 0.066407 1.1992s0.51562 0.66797 0.89453 0.80078c0.37891 0.13281 0.80859 0.12109 1.1992-0.066406 0.39062-0.1875 0.66797-0.51562 0.80078-0.89453 0.13281-0.37891 0.12109-0.80859-0.066407-1.1992s-0.51562-0.66797-0.89453-0.80078c-0.14062-0.050781-0.30078-0.082031-0.46094-0.085938zm-0.10156-33.969h0.050781 0.054688c0.16016-0.003906 0.31641-0.035156 0.46484-0.085937 0.37891-0.13281 0.70703-0.41016 0.89453-0.80078 0.1875-0.39062 0.19922-0.82031 0.066406-1.1992-0.12891-0.36328-0.38672-0.67969-0.75391-0.87109-0.035156-0.015625-0.066406-0.03125-0.097656-0.046875-0.37891-0.16797-0.78906-0.17188-1.1523-0.046875s-0.67969 0.38672-0.87109 0.75391c-0.011719 0.035156-0.027343 0.066406-0.046875 0.097656-0.16797 0.37891-0.17188 0.78906-0.046875 1.1523 0.13281 0.37891 0.41016 0.70703 0.80078 0.89453 0.20703 0.09375 0.42188 0.14453 0.63672 0.15234zm37.395-25.027h0.054688 0.054688c0.16016-0.003907 0.31641-0.035157 0.46484-0.085938 0.36328-0.125 0.67969-0.38672 0.87109-0.75391 0.011719-0.035156 0.027344-0.066406 0.046875-0.097656 0.16797-0.37891 0.17188-0.78906 0.046875-1.1523-0.12891-0.36328-0.38672-0.67969-0.75391-0.87109-0.035157-0.011719-0.066407-0.027344-0.097657-0.046875-0.37891-0.16797-0.78906-0.17188-1.1523-0.046875-0.36328 0.12891-0.67969 0.38672-0.87109 0.75391-0.011719 0.035156-0.027344 0.066406-0.046875 0.097656-0.16797 0.37891-0.17188 0.78906-0.046875 1.1523 0.12891 0.36328 0.38672 0.67969 0.75391 0.87109 0.035157 0.011719 0.066407 0.03125 0.097657 0.046875 0.1875 0.082031 0.38672 0.125 0.57812 0.13281zm-17.121 4.4727v-0.054688-0.054687c-0.007813-0.19531-0.050781-0.39062-0.13281-0.57812-0.019531-0.03125-0.035156-0.0625-0.046875-0.097656-0.19141-0.36719-0.50781-0.625-0.87109-0.75391-0.37891-0.13281-0.80859-0.12109-1.1992 0.066407s-0.66797 0.51953-0.80078 0.89453c-0.12891 0.36328-0.12109 0.77344 0.046874 1.1523 0.019532 0.03125 0.035157 0.0625 0.046876 0.097657 0.19141 0.36719 0.50781 0.625 0.87109 0.75391s0.77344 0.12109 1.1523-0.046875c0.03125-0.019531 0.066406-0.035156 0.097656-0.046875 0.36719-0.19141 0.625-0.50781 0.75391-0.87109 0.046874-0.14062 0.078124-0.30078 0.082031-0.46094zm33.969-0.10547v0.054687 0.050782c0.003906 0.16016 0.035156 0.31641 0.085937 0.46484 0.12891 0.36328 0.38672 0.67969 0.75391 0.87109 0.035157 0.011719 0.066407 0.027344 0.097657 0.046875 0.37891 0.16797 0.78906 0.17188 1.1523 0.046875 0.36328-0.12891 0.67969-0.38672 0.87109-0.75391 0.011719-0.035156 0.027344-0.066406 0.046875-0.097656 0.16797-0.37891 0.17188-0.78906 0.046875-1.1523-0.12891-0.36328-0.38672-0.67969-0.75391-0.87109-0.035156-0.011719-0.066406-0.027343-0.097656-0.046875-0.37891-0.16797-0.78906-0.17188-1.1523-0.046875-0.36328 0.12891-0.67969 0.38672-0.87109 0.75391-0.011718 0.035156-0.027344 0.066406-0.046875 0.097656-0.082031 0.19141-0.125 0.38672-0.13281 0.58203zm-3.7227 44.402h-17.289c-0.52734 0-0.95703 0.42969-0.95703 0.95703s0.42969 0.95703 0.95703 0.95703h17.289c0.52734 0 0.95703-0.42969 0.95703-0.95703s-0.42969-0.95703-0.95703-0.95703zm0 4.2188h-17.289c-0.52734 0-0.95703 0.42969-0.95703 0.95703s0.42969 0.95703 0.95703 0.95703h17.289c0.52734 0 0.95703-0.42969 0.95703-0.95703s-0.42969-0.95703-0.95703-0.95703zm2.9023-7.332h-23.09c-0.046874 0-0.085937 0.011718-0.10937 0.035156 0 0-0.003907 0-0.003907-0.003906v12.297c0-0.003906 0.003907-0.003906 0.003907-0.003906 0.023437 0.023438 0.0625 0.035156 0.10937 0.035156h23.09c0.046875 0 0.085938-0.011718 0.10938-0.035156 0 0 0.003907 0 0.003907 0.003906v-12.297c0 0.003906-0.003907 0.003906-0.003907 0.003906-0.023437-0.023438-0.0625-0.035156-0.10938-0.035156zm-23.09-1.9141c-0.54297 0-1.0391 0.20703-1.4023 0.54297-0.38672 0.35547-0.625 0.85156-0.625 1.3984v12.297c0 0.55078 0.23828 1.043 0.625 1.3984 0.36328 0.33594 0.85938 0.54297 1.4023 0.54297h23.09c0.54297 0 1.0391-0.20703 1.4023-0.54297 0.38672-0.35547 0.625-0.85156 0.625-1.3984v-12.293c0-0.55078-0.23828-1.043-0.625-1.3984-0.36328-0.33594-0.85938-0.54297-1.4023-0.54297zm-0.11328 1.9453v0zm0 12.297v0zm23.316 0v0zm0-12.297v0zm-11.867-16.949h-17.289c-0.52734 0-0.95703 0.42969-0.95703 0.95703s0.42969 0.95703 0.95703 0.95703h17.289c0.52734 0 0.95703-0.42969 0.95703-0.95703s-0.42969-0.95703-0.95703-0.95703zm0 4.2188h-17.289c-0.52734 0-0.95703 0.42969-0.95703 0.95703s0.42969 0.95703 0.95703 0.95703h17.289c0.52734 0 0.95703-0.42969 0.95703-0.95703s-0.42969-0.95703-0.95703-0.95703zm2.8984-7.332h-23.09c-0.046875 0-0.085938 0.011718-0.10938 0.035156 0 0-0.003907 0-0.003907-0.003906v12.297c0-0.003906 0-0.003906 0.003907-0.003906 0.023437 0.023438 0.0625 0.035156 0.10938 0.035156h23.09c0.046874 0 0.085937-0.011718 0.10937-0.035156 0 0 0.003907 0 0.003907 0.003906v-12.297c0 0.003906-0.003907 0.003906-0.003907 0.003906-0.019531-0.019532-0.0625-0.035156-0.10937-0.035156zm-23.09-1.9141c-0.54297 0-1.0391 0.20703-1.4023 0.54297-0.38672 0.35547-0.625 0.85156-0.625 1.4023v12.297c0 0.55078 0.23828 1.043 0.625 1.4023 0.36328 0.33594 0.85938 0.54297 1.4023 0.54297h23.09c0.54297 0 1.0391-0.20703 1.4023-0.54297 0.38672-0.35547 0.625-0.85156 0.625-1.4023v-12.297c0-0.55078-0.23828-1.043-0.625-1.4023-0.36328-0.33594-0.85938-0.54297-1.4023-0.54297zm-0.11328 1.9453v0zm0 12.297v0zm23.316 0v0zm0.003906-12.297v0zm10.809-12.148h-36.086c-2.8242 0-5.3906 1.1562-7.2539 3.0195s-3.0156 4.4297-3.0156 7.2539l0.003906 18.039v18.043c0 2.8242 1.1562 5.3906 3.0156 7.2539 1.8633 1.8633 4.4297 3.0195 7.2539 3.0195l18.039-0.003906h18.043c2.8242 0 5.3906-1.1562 7.2539-3.0195s3.0156-4.4297 3.0156-7.2539l-0.003906-18.039v-18.043c0-2.8242-1.1562-5.3906-3.0156-7.2539-1.8594-1.8594-4.4297-3.0156-7.25-3.0156z" fill-rule="evenodd"/>

</svg>