<svg xmlns="http://www.w3.org/2000/svg" version="1.1" viewBox="0 0 110.0 110.0">
 <g>
  <path fill="#e35a29" d="m80.277 44.887c1.3906 0 2.7773-0.53125 4.1289-1.5898 0.46484-0.36328 0.54688-1.0352 0.17969-1.5-0.36328-0.46484-1.0352-0.54688-1.5-0.17969-1.918 1.5039-3.7031 1.5039-5.625 0-0.46484-0.36328-1.1367-0.28125-1.5 0.17969-0.36328 0.46484-0.28125 1.1367 0.17969 1.5 1.3594 1.0625 2.7461 1.5898 4.1367 1.5898z"/>
  <path fill="#e35a29" d="m19.797 59.129c2.4727 0 4.4844-2.0352 4.4844-4.5391s-2.0117-4.5391-4.4844-4.5391-4.4844 2.0352-4.4844 4.5391 2.0117 4.5391 4.4844 4.5391zm0-6.9414c1.2969 0 2.3477 1.0781 2.3477 2.4023 0 1.3242-1.0547 2.4023-2.3477 2.4023-1.2969 0-2.3477-1.0781-2.3477-2.4023-0.003907-1.3242 1.0508-2.4023 2.3477-2.4023z"/>
  <path fill="#e35a29" d="m11.574 18.219h19.633c0.58984 0 1.0664-0.47656 1.0664-1.0664s-0.47656-1.0664-1.0664-1.0664l-19.633-0.003907c-0.58984 0-1.0664 0.47656-1.0664 1.0664 0 0.58984 0.47656 1.0703 1.0664 1.0703z"/>
  <path fill="#e35a29" d="m11.574 10.176h11.051c0.58984 0 1.0664-0.47656 1.0664-1.0664s-0.47656-1.0664-1.0664-1.0664l-11.051-0.003907c-0.58984 0-1.0664 0.47656-1.0664 1.0664 0 0.59375 0.47656 1.0703 1.0664 1.0703z"/>
  <path fill="#e35a29" d="m25.488 24.125h-13.914c-0.58984 0-1.0664 0.47656-1.0664 1.0664s0.47656 1.0664 1.0664 1.0664h13.914c0.58984 0 1.0664-0.47656 1.0664-1.0664s-0.47656-1.0664-1.0664-1.0664z"/>
  <path fill="#e35a29" d="m96.156 58.477c-3.793-6.5977-6.4297-12.762-7.0703-20.375-0.83984-10.027-4.2148-19.895-11.301-27.246-9.4766-9.8359-25.309-13.121-38.238-9.3086v-0.41016c0-0.58984-0.47656-1.0664-1.0664-1.0664l-34.176-0.0039063c-0.58984 0-1.0664 0.47656-1.0664 1.0664v32.031c0 0.58984 0.47656 1.0664 1.0664 1.0664h10.152c-0.21875 2.9688-0.11719 5.9648 0.30469 8.9297l-10.457 0.003906c-0.58984 0-1.0664 0.47656-1.0664 1.0664v27.758c0 0.58984 0.47656 1.0664 1.0664 1.0664h24.125c-1.8203 2.082-2.8594 4.7695-2.8555 7.6016 0.007812 6.3516 5.1797 11.516 11.535 11.516h0.015625c1.9492-0.003906 3.7812-0.49219 5.3945-1.3516 8.1016 6.3594 18.383 9.625 28.668 9.1289 0.57031-0.027344 1.0156-0.49609 1.0156-1.0664v-8.3438c1.4062 0.070313 2.8164 0.09375 4.2227 0.058594 7.1172-0.16797 12.695-5.6875 12.695-12.566v-12.805h3.5039c3.3164 0 5.1719-4.0273 3.5312-6.75zm-90.785-26.379v-29.895h32.039v18.578h-2.1484c-2.4727 0-4.4844 2.0117-4.4844 4.4844v6.832zm25.406 2.1367v8.9297h-13.855c-0.44531-2.9648-0.55078-5.9609-0.32422-8.9297zm-19.062 24.668-6.3438 9.5508v-23.152h25.684c1.0898 2.9844 3.7461 2.9531 6.3555 2.9531v20.324l-8.0938-11.676c-0.41016-0.59375-1.3125-0.60547-1.7383-0.023438l-7.3125 10.008-6.8438-8.082c-0.45312-0.53516-1.3164-0.48438-1.707 0.097656zm8.2461 12.02 8.457-11.574 8.0234 11.574zm17.16 19.117h-0.011719c-5.1758 0-9.3906-4.207-9.3984-9.3828-0.003907-3.0117 1.4336-5.8242 3.8594-7.5977h6.9102c0.58984 0 1.0664-0.47656 1.0664-1.0664v-0.41797c4.0352 1.082 6.9531 4.7773 6.9609 9.0547 0.003907 5.1836-4.2031 9.4023-9.3867 9.4102zm55.504-26.945h-4.5742c-0.58984 0-1.0664 0.47656-1.0664 1.0664v10.668h-9.1953c-0.58984 0-1.0664 0.47656-1.0664 1.0664 0 0.58984 0.47656 1.0664 1.0664 1.0664h9.1953v1.0664c0 5.7109-4.6602 10.293-10.609 10.434-1.7227 0.039062-3.4453-0.011719-5.1641-0.12891-7.7422-0.55859-15.344-2.8125-22.613-6.6875 0.027344-0.33594 0.046875-0.67578 0.046875-1.0195-0.007812-5.4414-3.8555-10.121-9.0938-11.25v-3.0234c0.625 0.035157 1.2539 0.054688 1.875 0.054688 18.266 0 33.129-14.84 33.129-33.082 0-4.2969-0.81641-8.4805-2.4297-12.434-0.22266-0.54688-0.84766-0.80859-1.3906-0.58594-0.54688 0.22266-0.80859 0.84375-0.58594 1.3906 1.5078 3.6953 2.2695 7.6094 2.2695 11.629 0 17.062-13.902 30.945-30.992 30.945-0.625 0-1.2539-0.019531-1.875-0.058593v-15.961h20.676c2.4727 0 4.4844-2.0117 4.4844-4.4844v-18.5c0-2.3203-1.7734-4.2344-4.0391-4.4609-0.15234-0.015626-0.30469-0.023438-0.46094-0.023438h-20.66l-0.003906-17c3.3203-1.0469 6.8086-1.5742 10.375-1.5781-0.30469 0.54688-0.48438 1.1758-0.48438 1.8398 0 1.9922 1.5586 3.6758 3.5469 3.8281 7.832 0.60156 14.676 3.5508 19.262 8.3125 3.957 4.1055 6.5898 9.1133 8.0508 15.316 0.62891 2.668 3.918 3.8438 6.0938 2.1602 0.24219 1.4766 0.41797 3 0.5625 4.5742 0.86328 9.3789 3.457 15.004 7.3672 21.336 0.80078 1.3164 0.007813 3.5234-1.6953 3.5234zm-48.898-23.004v-11.148l9.1523 5.5742z"/>
  <path fill="#e35a29" d="m37.109 86.254c-3.0938 0-5.6094-2.5156-5.6094-5.6094s2.5156-5.6094 5.6094-5.6094 5.6094 2.5156 5.6094 5.6094-2.5156 5.6094-5.6094 5.6094zm0-9.0859c-1.918 0-3.4766 1.5586-3.4766 3.4766s1.5586 3.4766 3.4766 3.4766 3.4766-1.5586 3.4766-3.4766c-0.003907-1.918-1.5625-3.4766-3.4766-3.4766z"/>
 </g>
</svg>