<svg xmlns="http://www.w3.org/2000/svg" version="1.1" viewBox="-5.0 -15.0 110.0 135.0">
 <path fill="#e4764f" d="m54.414 32.086c1.8125 0.44531 3.543 1.1641 5.1328 2.1289l4.4297-3.25c0.27344-0.20312 0.65234-0.16797 0.88672 0.066406l4.1094 4.1094c0.25391 0.25391 0.26562 0.65625 0.039063 0.92188l-3.2227 4.3906c0.96484 1.5898 1.6836 3.3203 2.1289 5.1328l5.4258 0.83203c0.33984 0.050781 0.58203 0.34375 0.58203 0.67578v5.8086c0 0.35156-0.26562 0.64062-0.60547 0.67969l-5.4023 0.82812c-0.44531 1.8125-1.1641 3.543-2.1289 5.1328l3.25 4.4297c0.20313 0.27344 0.16797 0.65234-0.066406 0.88672l-4.1094 4.1094c-0.25391 0.25391-0.65625 0.26562-0.92188 0.039062l-4.3906-3.2227c-1.5898 0.96484-3.3203 1.6836-5.1328 2.1289l-0.83203 5.4258c-0.050782 0.33984-0.34375 0.58203-0.67578 0.58203h-5.8086c-0.35156 0-0.64062-0.26562-0.67969-0.60547l-0.82812-5.4023c-1.8125-0.44531-3.543-1.1641-5.1328-2.1289l-4.4297 3.25c-0.27344 0.20312-0.65234 0.16797-0.88672-0.066406l-4.1094-4.1094c-0.25391-0.25391-0.26562-0.65625-0.039062-0.92188l3.2227-4.3906c-0.96484-1.5898-1.6836-3.3203-2.1289-5.1328l-5.4258-0.83203c-0.33984-0.050781-0.58203-0.34375-0.58203-0.67578v-5.8086c0-0.35156 0.26562-0.64062 0.60547-0.67969l5.4023-0.82812c0.44531-1.8125 1.168-3.543 2.1289-5.1328l-3.25-4.4297c-0.20312-0.27344-0.16797-0.65234 0.066406-0.88672l4.1094-4.1094c0.25391-0.25391 0.65625-0.26562 0.92188-0.039062l4.3906 3.2227c1.5898-0.96484 3.3203-1.6836 5.1328-2.1289l0.83203-5.4258c0.050781-0.33984 0.34375-0.58203 0.67578-0.58203h5.8086c0.35156 0 0.64062 0.26562 0.67969 0.60547zm-21.633-0.27344-5.5977-5.5977c-0.63672-0.63672-1.6016 0.33203-0.96484 0.96484l5.5977 5.5977c0.63281 0.63672 1.5977-0.32812 0.96484-0.96484zm-0.96875 35.406-5.5977 5.5977c-0.63672 0.63672 0.33203 1.6016 0.96484 0.96484l5.5977-5.5977c0.63672-0.63281-0.32812-1.5977-0.96484-0.96484zm35.406 0.96875 5.5977 5.5977c0.63672 0.63672 1.6016-0.33203 0.96484-0.96484l-5.5977-5.5977c-0.63281-0.63672-1.5977 0.32812-0.96484 0.96484zm0.96875-35.406 5.5977-5.5977c0.63672-0.63672-0.33203-1.6016-0.96484-0.96484l-5.6016 5.5938c-0.63281 0.63672 0.33203 1.6016 0.96875 0.96875zm-43.355 16.535c0.89844 0 0.89844 1.3672 0 1.3672h-5.8594c-0.89844 0-0.89844-1.3672 0-1.3672zm24.484 25.852c0-0.89844 1.3672-0.89844 1.3672 0v5.8594c0 0.89844-1.3672 0.89844-1.3672 0zm25.812-24.484c-0.89844 0-0.89844-1.3672 0-1.3672h5.9375c0.89844 0 0.89844 1.3672 0 1.3672zm-24.445-25.852c0 0.89844-1.3672 0.89844-1.3672 0v-5.8594c0-0.89844 1.3672-0.89844 1.3672 0zm-40.207 24.484h5.3867l-2.6914-4.6602h-5.3828zm7.125 0.28906c0.17578 0.24609 0.16406 0.53906 0 0.79297l-1.707 2.9609-1.7383 3.0156c-0.125 0.21875-0.35547 0.33984-0.58984 0.33984l-6.9609-0.003906c-0.26953 0-0.50391-0.15625-0.61328-0.38281-0.48047-0.90625-1.2422-2.0859-1.7344-3.0078l-1.7188-2.9766c-0.125-0.22266-0.11719-0.48438 0.003907-0.6875l1.7344-3.0078c0.24219-0.41797 1.6953-3.0078 1.8555-3.1602 0.12891-0.125 0.29688-0.19531 0.47656-0.19531h6.9609c0.26953 0 0.50391 0.15625 0.61328 0.38281 0.48047 0.90625 1.2422 2.0859 1.7344 3.0078zm-1.7383 1.0781h-5.3867l-2.6914 4.6602h5.3867l1.543-2.6719zm-9.2578 3.9805-2.6953-4.6641 1.543-2.6719 1.1484-1.9922 2.6953 4.6641zm42.711 34.859v-5.3867l-4.6602 2.6914v5.3867zm0.28906-7.125c0.24609-0.17578 0.53906-0.16406 0.79297 0l2.9609 1.707 3.0156 1.7383c0.21875 0.125 0.33984 0.35547 0.33984 0.58984v6.9609c0 0.26953-0.15625 0.50391-0.38281 0.61328-0.90625 0.48047-2.0859 1.2422-3.0078 1.7344l-2.9766 1.7188c-0.22266 0.125-0.48438 0.11719-0.6875-0.003907l-3.0078-1.7344c-0.41797-0.24219-3.0078-1.6953-3.1602-1.8555-0.125-0.12891-0.19531-0.29688-0.19531-0.47656v-6.9609c0-0.26953 0.15625-0.50391 0.38281-0.61328 0.90625-0.48047 2.0859-1.2422 3.0078-1.7344zm1.0781 1.7383v5.3867l4.6602 2.6914v-5.3867l-2.6719-1.543zm3.9805 9.2578-4.6641 2.6953-2.6719-1.543-1.9922-1.1484 4.6641-2.6953zm34.859-42.711h-5.3867l2.6914 4.6602h5.3867zm-7.125-0.28906c-0.17578-0.24609-0.16406-0.53906 0-0.79297l1.707-2.9609 1.7383-3.0156c0.125-0.21875 0.35547-0.33984 0.58984-0.33984h6.9609c0.26953 0 0.50391 0.15625 0.61328 0.38281 0.48047 0.90625 1.2422 2.0859 1.7344 3.0078l1.7188 2.9766c0.125 0.22266 0.11719 0.48438-0.003907 0.6875l-1.7344 3.0078c-0.24219 0.41797-1.6953 3.0078-1.8555 3.1602-0.12891 0.125-0.29688 0.19531-0.47656 0.19531h-6.9609c-0.26953 0-0.50391-0.15625-0.61328-0.38281-0.48047-0.90625-1.2422-2.0859-1.7344-3.0078zm1.7383-1.0781h5.3867l2.6914-4.6602h-5.3867l-1.543 2.6719zm9.2578-3.9805 2.6953 4.6641-1.543 2.6719-1.1484 1.9922-2.6953-4.6641zm-42.711-34.859v5.3867l4.6602-2.6914v-5.3828zm-0.28906 7.125c-0.24609 0.17578-0.53906 0.16406-0.79297 0l-2.9609-1.707-3.0156-1.7383c-0.21875-0.125-0.33984-0.35547-0.33984-0.58984l0.003906-6.9609c0-0.26953 0.15625-0.50391 0.38281-0.61328 0.90625-0.48047 2.0859-1.2422 3.0078-1.7344l2.9766-1.7188c0.22266-0.125 0.48438-0.11719 0.6875 0.003907l3.0078 1.7344c0.41797 0.24219 3.0078 1.6953 3.1602 1.8555 0.125 0.12891 0.19531 0.29688 0.19531 0.47656v6.9609c0 0.26953-0.15625 0.50391-0.38281 0.61328-0.90625 0.48047-2.0859 1.2422-3.0078 1.7344zm-1.0781-1.7383v-5.3867l-4.6602-2.6914v5.3867l2.6719 1.543zm-3.9805-9.2578 4.6641-2.6953 2.6719 1.543 1.9922 1.1484-4.6641 2.6953zm38.48 70.77c3.5547 0 6.4375 2.8828 6.4375 6.4375s-2.8828 6.4375-6.4375 6.4375c-3.5547 0-6.4375-2.8828-6.4375-6.4375-0.003906-3.5547 2.8789-6.4375 6.4375-6.4375zm3.5859 2.8555c-3.1875-3.1875-8.6562-0.91797-8.6562 3.5859s5.4727 6.7734 8.6562 3.5859c1.9805-1.9805 1.9805-5.1914 0-7.1719zm-0.83984-6.7227-0.4375-2.8516h-0.003906c-0.046875-0.32812-0.33203-0.57812-0.67188-0.57812h-3.2109c-0.35547-0.027344-0.67578 0.22266-0.73047 0.57812l-0.4375 2.8516c-0.91406 0.24219-1.7891 0.60547-2.6016 1.0781l-2.293-1.6836c-0.26953-0.22656-0.67188-0.21484-0.92188 0.039062l-2.3086 2.3086c-0.23437 0.23438-0.26953 0.60938-0.066406 0.88672l1.7109 2.3281c-0.47266 0.8125-0.83594 1.6875-1.0781 2.6016l-2.8516 0.4375v0.003906c-0.32812 0.046876-0.57812 0.33203-0.57812 0.67188v3.2109c-0.027343 0.35547 0.22266 0.67578 0.57812 0.73047l2.8516 0.4375c0.24219 0.91406 0.60547 1.7891 1.0781 2.6016l-1.6836 2.293c-0.22656 0.26953-0.21484 0.67188 0.039062 0.92188l2.3086 2.3086c0.23438 0.23438 0.60938 0.26953 0.88672 0.066406l2.3281-1.7109c0.8125 0.47266 1.6875 0.83594 2.6016 1.0781l0.4375 2.8516h0.003907c0.046875 0.32812 0.33203 0.57812 0.67188 0.57812h3.2109c0.35547 0.027344 0.67578-0.22266 0.73047-0.57812l0.4375-2.8516c0.91406-0.24219 1.7891-0.60938 2.6016-1.0781l2.293 1.6836c0.26953 0.22656 0.67188 0.21484 0.92188-0.039062l2.3086-2.3086c0.23438-0.23438 0.26953-0.60938 0.066406-0.88672l-1.7109-2.3281c0.47266-0.8125 0.83594-1.6875 1.0781-2.6016l2.8516-0.4375v-0.003906c0.32812-0.046876 0.57812-0.33203 0.57812-0.67188v-3.2109c0.027344-0.35547-0.22266-0.67578-0.57812-0.73047l-2.8516-0.4375c-0.24219-0.91406-0.60547-1.7891-1.0781-2.6016l1.6836-2.293c0.22656-0.26953 0.21484-0.67188-0.039062-0.92188l-2.3086-2.3086c-0.23438-0.23438-0.60938-0.26953-0.88672-0.066406l-2.3281 1.7109c-0.81641-0.47266-1.6914-0.83594-2.6016-1.0781zm0.80859 1.7109c-0.49219-0.20312-1.0078-0.36719-1.543-0.48438-0.27734-0.050781-0.50391-0.27344-0.54688-0.57031l-0.41797-2.7266h-2.0898l-0.41797 2.7266c-0.039063 0.27344-0.24609 0.50391-0.53125 0.56641-1.0742 0.23438-2.1016 0.66406-3.0195 1.25-0.23047 0.14844-0.53906 0.14844-0.77344-0.023438l-2.2266-1.6328-1.4805 1.4805 1.6211 2.207c0.17578 0.22266 0.19922 0.53906 0.035157 0.78906-0.5625 0.875-1.0391 1.9727-1.2461 3-0.050781 0.27734-0.27344 0.50391-0.57031 0.54688l-2.7266 0.41797v2.0898l2.7266 0.41797c0.27344 0.039062 0.50391 0.24609 0.56641 0.53125 0.23438 1.0742 0.66406 2.1016 1.25 3.0195 0.14844 0.23047 0.14844 0.53906-0.023438 0.77344l-1.6328 2.2266 1.4805 1.4805 2.207-1.6211c0.22266-0.17578 0.53906-0.19922 0.78906-0.035156 0.875 0.5625 1.9766 1.0391 3 1.2461 0.27734 0.050781 0.50391 0.27344 0.54688 0.57031l0.41797 2.7266h2.0898l0.41797-2.7266c0.039062-0.27344 0.24609-0.50391 0.53125-0.56641 1.0742-0.23438 2.1016-0.66406 3.0195-1.25 0.23047-0.14844 0.53906-0.14844 0.77344 0.023437l2.2266 1.6328 1.4805-1.4805-1.6211-2.207c-0.17578-0.22266-0.19922-0.53906-0.039063-0.78906 0.5625-0.875 1.0391-1.9766 1.2461-3 0.050781-0.27734 0.27344-0.50391 0.57031-0.54688l2.7266-0.41797v-2.0898l-2.7266-0.41797c-0.27344-0.039063-0.50391-0.24609-0.56641-0.53125-0.23438-1.0742-0.66406-2.1016-1.25-3.0195-0.14844-0.23047-0.14844-0.53906 0.023438-0.77344l1.6328-2.2266-1.4805-1.4805-2.207 1.6211c-0.22266 0.17578-0.53906 0.19922-0.78906 0.035157-0.45312-0.29297-0.94141-0.55078-1.4531-0.76172zm-71.188 2.1562c3.5547 0 6.4375 2.8828 6.4375 6.4375s-2.8828 6.4375-6.4375 6.4375c-3.5547 0-6.4375-2.8828-6.4375-6.4375s2.8828-6.4375 6.4375-6.4375zm3.5859 2.8555c-3.1836-3.1875-8.6562-0.91797-8.6562 3.5859s5.4727 6.7734 8.6562 3.5859c1.9805-1.9805 1.9805-5.1914 0-7.1719zm-0.83984-6.7227-0.43359-2.832c-0.039063-0.33984-0.32812-0.60547-0.67969-0.60547h-3.2656c-0.33203 0-0.625 0.24219-0.67578 0.58203l-0.4375 2.8516c-0.91406 0.24219-1.7891 0.60547-2.6016 1.0781l-2.293-1.6836c-0.26953-0.22656-0.67188-0.21484-0.92188 0.039062l-2.3086 2.3086c-0.23438 0.23438-0.26953 0.60938-0.066406 0.88672l1.7109 2.3281c-0.47266 0.8125-0.83594 1.6875-1.0781 2.6016l-2.8281 0.43359c-0.33984 0.039062-0.60547 0.32812-0.60547 0.67969v3.2656c0 0.33203 0.24219 0.625 0.58203 0.67578l2.8516 0.4375c0.24219 0.91406 0.60547 1.7891 1.0781 2.6016l-1.6836 2.293c-0.22656 0.26953-0.21484 0.67188 0.039062 0.92188l2.3086 2.3086c0.23438 0.23437 0.60938 0.26953 0.88672 0.066406l2.3281-1.7109c0.8125 0.47266 1.6875 0.83594 2.6016 1.0781l0.43359 2.832c0.039062 0.33984 0.32812 0.60547 0.67969 0.60547h3.2656c0.33203 0 0.625-0.24219 0.67578-0.58203l0.4375-2.8516c0.91406-0.24219 1.7891-0.60938 2.6016-1.0781l2.293 1.6836c0.26953 0.22656 0.67188 0.21484 0.92188-0.039062l2.3086-2.3086c0.23437-0.23438 0.26953-0.60938 0.066406-0.88672l-1.7109-2.3281c0.47266-0.8125 0.83594-1.6875 1.0781-2.6016l2.832-0.43359c0.33984-0.039062 0.60547-0.32812 0.60547-0.67969v-3.2656c0-0.33203-0.24219-0.625-0.58203-0.67578l-2.8516-0.4375c-0.24219-0.91406-0.60547-1.7891-1.0781-2.6016l1.6836-2.293c0.22656-0.26953 0.21484-0.67188-0.039062-0.92188l-2.3086-2.3086c-0.23438-0.23438-0.60938-0.26953-0.88672-0.066406l-2.3281 1.7109c-0.81641-0.47266-1.6914-0.83594-2.6055-1.0781zm0.8125 1.7109c-0.49219-0.20312-1.0078-0.36719-1.543-0.48438-0.27734-0.050781-0.50391-0.27344-0.54688-0.57031l-0.41797-2.7266h-2.0938l-0.41797 2.7266c-0.039062 0.27344-0.24609 0.50391-0.53125 0.56641-1.0742 0.23438-2.1016 0.66016-3.0195 1.25-0.23047 0.14844-0.53906 0.14844-0.77344-0.023438l-2.2266-1.6328-1.4805 1.4805 1.6211 2.207c0.17578 0.22266 0.19922 0.53906 0.035156 0.78906-0.5625 0.875-1.0391 1.9727-1.2461 3-0.050781 0.27734-0.27344 0.50391-0.57031 0.54688l-2.7227 0.42188v2.0938l2.7266 0.41797c0.27344 0.039062 0.50391 0.24609 0.56641 0.53125 0.23438 1.0742 0.66406 2.1016 1.25 3.0195 0.14844 0.23047 0.14844 0.53906-0.023437 0.77344l-1.6328 2.2266 1.4805 1.4805 2.207-1.6211c0.22266-0.17578 0.53906-0.19922 0.78906-0.035156 0.875 0.5625 1.9766 1.0391 3 1.2461 0.27734 0.050781 0.50391 0.27344 0.54688 0.57031l0.41797 2.7266h2.0938l0.41797-2.7266c0.039062-0.27344 0.24609-0.50391 0.53125-0.56641 1.0742-0.23438 2.1016-0.66406 3.0195-1.25 0.23047-0.14844 0.53906-0.14844 0.77344 0.023438l2.2266 1.6328 1.4805-1.4805-1.6211-2.207c-0.17578-0.22266-0.19922-0.53906-0.039063-0.78906 0.5625-0.875 1.0391-1.9766 1.2461-3 0.050781-0.27734 0.27344-0.50391 0.57031-0.54688l2.7266-0.41797v-2.0938l-2.7266-0.41797c-0.27344-0.039063-0.50391-0.24609-0.56641-0.53125-0.23438-1.0742-0.66406-2.1016-1.25-3.0195-0.14844-0.23047-0.14844-0.53906 0.023438-0.77344l1.6328-2.2266-1.4805-1.4805-2.207 1.6211c-0.22266 0.17578-0.53906 0.19922-0.78906 0.035156-0.46094-0.29688-0.94531-0.55469-1.457-0.76562zm64.074-65.473c3.5547 0 6.4375 2.8828 6.4375 6.4375 0 3.5547-2.8828 6.4375-6.4375 6.4375-3.5547 0-6.4375-2.8828-6.4375-6.4375-0.003906-3.5547 2.8789-6.4375 6.4375-6.4375zm3.5859 2.8516c-3.1875-3.1875-8.6562-0.91797-8.6562 3.5859s5.4727 6.7734 8.6562 3.5859c1.9805-1.9805 1.9805-5.1914 0-7.1719zm-0.83984-6.7227-0.43359-2.832c-0.039062-0.33984-0.32812-0.60547-0.67969-0.60547h-3.2656c-0.33203 0-0.625 0.24219-0.67578 0.58203l-0.4375 2.8516c-0.91406 0.24219-1.7891 0.60547-2.6016 1.0781l-2.293-1.6836c-0.26953-0.22656-0.67188-0.21484-0.92188 0.039063l-2.3086 2.3086c-0.23437 0.23438-0.26953 0.60938-0.066406 0.88672l1.7109 2.3281c-0.47266 0.8125-0.83594 1.6875-1.0781 2.6016l-2.8281 0.43359c-0.33984 0.039063-0.60547 0.32812-0.60547 0.67969v3.2656c0 0.33203 0.24219 0.625 0.58203 0.67578l2.8516 0.4375c0.24219 0.91406 0.60547 1.7891 1.0781 2.6016l-1.6836 2.293c-0.22656 0.26953-0.21484 0.67188 0.039062 0.92188l2.3086 2.3086c0.23438 0.23438 0.60938 0.26953 0.88672 0.066406l2.3281-1.7109c0.8125 0.47266 1.6875 0.83594 2.6016 1.0781l0.43359 2.832c0.039063 0.33984 0.32812 0.60547 0.67969 0.60547h3.2656c0.33203 0 0.625-0.24219 0.67578-0.58203l0.4375-2.8516c0.91406-0.24219 1.7891-0.60547 2.6016-1.0781l2.293 1.6836c0.26953 0.22656 0.67188 0.21484 0.92188-0.039063l2.3086-2.3086c0.23438-0.23438 0.26953-0.60938 0.066406-0.88672l-1.7109-2.3281c0.47266-0.8125 0.83594-1.6875 1.0781-2.6016l2.832-0.43359c0.33984-0.039063 0.60547-0.32813 0.60547-0.67969v-3.2617c0-0.33203-0.24219-0.625-0.58203-0.67578l-2.8516-0.4375c-0.24219-0.91406-0.60547-1.7891-1.0781-2.6016l1.6836-2.293c0.22656-0.26953 0.21484-0.67188-0.039063-0.92188l-2.3125-2.3086c-0.23438-0.23438-0.60938-0.26953-0.88672-0.066406l-2.3281 1.7109c-0.81641-0.47266-1.6914-0.83594-2.6016-1.082zm0.80859 1.7148c-0.49219-0.20312-1.0078-0.36719-1.543-0.48438-0.27734-0.050781-0.50391-0.27344-0.54688-0.57031l-0.41797-2.7266h-2.0938l-0.41797 2.7266c-0.039062 0.27344-0.24609 0.50391-0.53125 0.56641-1.0742 0.23438-2.1016 0.66016-3.0195 1.25-0.23047 0.14844-0.53906 0.14844-0.77344-0.023437l-2.2266-1.6328-1.4805 1.4805 1.6211 2.207c0.17578 0.22266 0.19922 0.53906 0.035156 0.78906-0.5625 0.875-1.0391 1.9727-1.2461 3-0.050781 0.27734-0.27344 0.50391-0.57031 0.54688l-2.7266 0.41797v2.0938l2.7266 0.41797c0.27344 0.039062 0.50391 0.24609 0.56641 0.53125 0.23438 1.0742 0.66406 2.1016 1.25 3.0195 0.14844 0.23047 0.14844 0.53906-0.023437 0.77344l-1.6328 2.2266 1.4805 1.4805 2.207-1.6211c0.22266-0.17578 0.53906-0.19922 0.78906-0.035156 0.875 0.5625 1.9766 1.0391 3 1.2461 0.27734 0.050781 0.50391 0.27344 0.54688 0.57031l0.41797 2.7266h2.0938l0.41797-2.7266c0.039062-0.27344 0.24609-0.50391 0.53125-0.56641 1.0742-0.23438 2.1016-0.66406 3.0195-1.25 0.23047-0.14844 0.53906-0.14844 0.77344 0.023437l2.2266 1.6328 1.4805-1.4805-1.6211-2.207c-0.17578-0.22266-0.19922-0.53906-0.039063-0.78906 0.5625-0.875 1.0391-1.9766 1.2461-3 0.050781-0.27734 0.27344-0.50391 0.57031-0.54688l2.7266-0.41797 0.003906-2.0977-2.7266-0.41797c-0.27344-0.039062-0.50391-0.24609-0.56641-0.53125-0.23438-1.0742-0.66406-2.1016-1.25-3.0195-0.14844-0.23047-0.14844-0.53906 0.023437-0.77344l1.6328-2.2266-1.4805-1.4805-2.207 1.6211c-0.22266 0.17578-0.53906 0.19922-0.78906 0.035156-0.45703-0.29297-0.94531-0.54688-1.457-0.75781zm-71.188 2.1562c3.5547 0 6.4375 2.8828 6.4375 6.4375 0 3.5547-2.8828 6.4375-6.4375 6.4375-3.5547 0-6.4375-2.8828-6.4375-6.4375 0-3.5547 2.8828-6.4375 6.4375-6.4375zm3.5859 2.8516c-3.1836-3.1875-8.6562-0.91797-8.6562 3.5859s5.4727 6.7734 8.6562 3.5859c1.9805-1.9805 1.9805-5.1914 0-7.1719zm-0.83984-6.7227-0.43359-2.832c-0.039063-0.33984-0.32812-0.60547-0.67969-0.60547l-3.2656 0.003906c-0.33203 0-0.625 0.24219-0.67578 0.58203l-0.4375 2.8516c-0.91406 0.24219-1.7891 0.60547-2.6016 1.0781l-2.293-1.6836c-0.26953-0.22656-0.67188-0.21484-0.92188 0.039063l-2.3086 2.3125c-0.23438 0.23438-0.26953 0.60938-0.066406 0.88672l1.7109 2.3281c-0.47266 0.8125-0.83594 1.6875-1.0781 2.6016l-2.8281 0.43359c-0.33984 0.039062-0.60547 0.32812-0.60547 0.67969v3.2656c0 0.33203 0.24219 0.625 0.58203 0.67578l2.8516 0.4375c0.24219 0.91406 0.60547 1.7891 1.0781 2.6016l-1.6836 2.293c-0.22656 0.26953-0.21484 0.67188 0.039062 0.92188l2.3086 2.3086c0.23438 0.23437 0.60938 0.26953 0.88672 0.066406l2.3281-1.7109c0.8125 0.47266 1.6875 0.83594 2.6016 1.0781l0.43359 2.832c0.039062 0.33984 0.32812 0.60547 0.67969 0.60547h3.2656c0.33203 0 0.625-0.24219 0.67578-0.58203l0.4375-2.8516c0.91406-0.24219 1.7891-0.60547 2.6016-1.0781l2.293 1.6836c0.26953 0.22656 0.67188 0.21484 0.92188-0.039062l2.3086-2.3086c0.23437-0.23438 0.26953-0.60938 0.066406-0.88672l-1.7109-2.3281c0.47266-0.8125 0.83594-1.6875 1.0781-2.6016l2.832-0.43359c0.33984-0.039062 0.60547-0.32812 0.60547-0.67969l0.003907-3.2695c0-0.33203-0.24219-0.625-0.58203-0.67578l-2.8516-0.4375c-0.24219-0.91406-0.60547-1.7891-1.0781-2.6016l1.6836-2.293c0.22656-0.26953 0.21484-0.67188-0.039062-0.92188l-2.3086-2.3086c-0.23438-0.23438-0.60938-0.26953-0.88672-0.066406l-2.3281 1.7109c-0.82031-0.47266-1.6953-0.83594-2.6094-1.082zm0.8125 1.7148c-0.49219-0.20312-1.0078-0.36719-1.543-0.48438-0.27734-0.050781-0.50391-0.27344-0.54688-0.57031l-0.42188-2.7266h-2.0898l-0.41797 2.7266c-0.039062 0.27344-0.24609 0.50391-0.53125 0.56641-1.0742 0.23438-2.1016 0.66016-3.0195 1.25-0.23047 0.14844-0.53906 0.14844-0.77344-0.023437l-2.2266-1.6328-1.4805 1.4805 1.6211 2.207c0.17578 0.22266 0.19922 0.53906 0.035156 0.78906-0.5625 0.875-1.0391 1.9727-1.2461 3-0.050781 0.27734-0.27344 0.50391-0.57031 0.54688l-2.7227 0.42188v2.0938l2.7266 0.41797c0.27344 0.039062 0.50391 0.24609 0.56641 0.53125 0.23438 1.0742 0.66406 2.1016 1.25 3.0195 0.14844 0.23047 0.14844 0.53906-0.023437 0.77344l-1.6328 2.2266 1.4805 1.4805 2.207-1.6211c0.22266-0.17578 0.53906-0.19922 0.78906-0.035156 0.875 0.5625 1.9766 1.0391 3 1.2461 0.27734 0.050781 0.50391 0.27344 0.54688 0.57031l0.41797 2.7266h2.0938l0.41797-2.7266c0.039062-0.27344 0.24609-0.50391 0.53125-0.56641 1.0742-0.23438 2.1016-0.66406 3.0195-1.25 0.23047-0.14844 0.53906-0.14844 0.77344 0.023437l2.2266 1.6328 1.4805-1.4805-1.6211-2.207c-0.17578-0.22266-0.19922-0.53906-0.039063-0.78906 0.5625-0.875 1.0391-1.9727 1.2461-3 0.050781-0.27734 0.27344-0.50391 0.57031-0.54688l2.7266-0.41797v-2.1016l-2.7266-0.41797c-0.27344-0.039062-0.50391-0.24609-0.56641-0.53125-0.23438-1.0742-0.66406-2.1016-1.25-3.0195-0.14844-0.23047-0.14844-0.53906 0.023438-0.77344l1.6328-2.2266-1.4805-1.4805-2.207 1.6211c-0.22266 0.17578-0.53906 0.19922-0.78906 0.035156-0.46094-0.29297-0.94531-0.54688-1.457-0.75781zm30.258 31.484c-6.0352 0-10.926 4.8906-10.926 10.926s4.8906 10.926 10.926 10.926 10.926-4.8906 10.926-10.926-4.8906-10.926-10.926-10.926zm6.7578 4.168c-3.7344-3.7344-9.7852-3.7344-13.516 0-3.7344 3.7344-3.7344 9.7852 0 13.516 3.7344 3.7344 9.7852 3.7344 13.516 0 3.7344-3.7305 3.7344-9.7852 0-13.516zm-0.22266-9.0312c-0.91016-0.37891-1.8672-0.67969-2.8516-0.89844-0.27734-0.050781-0.50391-0.27344-0.55078-0.57031l-0.8125-5.3047h-4.6367l-0.8125 5.3047c-0.039063 0.27344-0.24609 0.50391-0.53125 0.56641-1.9727 0.42969-3.8594 1.2188-5.5469 2.2969-0.23047 0.14844-0.53906 0.14844-0.77344-0.023438l-4.3281-3.1758-3.2812 3.2812 3.1641 4.3125c0.17578 0.22266 0.19922 0.53906 0.035156 0.78906-1.0352 1.6094-1.9102 3.6367-2.2969 5.5273-0.050781 0.27734-0.27344 0.50391-0.57031 0.55078l-5.3008 0.8125v4.6367l5.3008 0.8125c0.27344 0.039063 0.50391 0.24609 0.56641 0.53125 0.42969 1.9727 1.2188 3.8594 2.3008 5.5469 0.14844 0.23047 0.14844 0.53906-0.023437 0.77344l-3.1758 4.3281 3.2812 3.2812 4.3125-3.1641c0.22266-0.17578 0.53906-0.19922 0.78906-0.035156 1.6094 1.0352 3.6367 1.9102 5.5273 2.2969 0.27734 0.050781 0.50391 0.27344 0.55078 0.57031l0.8125 5.3047h4.6367l0.8125-5.3008c0.039063-0.27344 0.24609-0.50391 0.53125-0.56641 1.9727-0.42969 3.8594-1.2188 5.5469-2.3008 0.23047-0.14844 0.53906-0.14844 0.77344 0.023438l4.3281 3.1758 3.2812-3.2812-3.1641-4.3125c-0.17578-0.22266-0.19922-0.53906-0.035157-0.78906 1.0352-1.6094 1.9102-3.6367 2.2969-5.5273 0.050782-0.27734 0.27344-0.50391 0.57031-0.55078l5.3047-0.8125v-4.6367l-5.3008-0.8125c-0.27344-0.039063-0.50391-0.24609-0.56641-0.53125-0.42969-1.9727-1.2188-3.8594-2.3008-5.5469-0.14844-0.23047-0.14844-0.53906 0.023437-0.77344l3.1758-4.3281-3.2812-3.2812-4.3125 3.1641c-0.22266 0.17578-0.53906 0.19922-0.78906 0.035156-0.84766-0.53906-1.7422-1.0078-2.6797-1.3984z" fill-rule="evenodd"/>
</svg>