<svg xmlns="http://www.w3.org/2000/svg" xmlns:xlink="http://www.w3.org/1999/xlink" version="1.1" x="0px" y="0px" viewBox="0 0 96 96" style="enable-background:new 0 0 96 96;" xml:space="preserve">
<style type="text/css">
	.st0{fill-rule:evenodd;clip-rule:evenodd;}
</style>
<path fill="#ee4c2c" d="M2.387,26.923V3.86c0-0.813,0.659-1.473,1.473-1.473h23.063c0.813,0,1.473,0.659,1.473,1.473s-0.659,1.473-1.473,1.473  H5.332v21.591c0,0.813-0.659,1.473-1.473,1.473S2.387,27.736,2.387,26.923z M26.923,90.668H5.332V69.077  c0-0.813-0.659-1.473-1.473-1.473s-1.473,0.659-1.473,1.473V92.14c0,0.813,0.659,1.473,1.473,1.473h23.063  c0.813,0,1.473-0.659,1.473-1.473S27.736,90.668,26.923,90.668z M92.14,2.387H69.077c-0.813,0-1.473,0.659-1.473,1.473  s0.659,1.473,1.473,1.473h21.591v21.591c0,0.813,0.659,1.473,1.473,1.473s1.473-0.659,1.473-1.473V3.86  C93.613,3.046,92.954,2.387,92.14,2.387z M92.14,67.604c-0.813,0-1.473,0.659-1.473,1.473v21.591H69.077  c-0.813,0-1.473,0.659-1.473,1.473s0.659,1.473,1.473,1.473H92.14c0.813,0,1.473-0.659,1.473-1.473V69.077  C93.613,68.264,92.954,67.604,92.14,67.604z M73.572,63.612L48.737,77.953c-0.228,0.132-0.482,0.197-0.737,0.197  s-0.509-0.066-0.737-0.197L22.428,63.612c-0.455-0.263-0.736-0.749-0.736-1.275V33.664c0-0.526,0.281-1.012,0.736-1.275  l24.836-14.342c0.456-0.263,1.017-0.263,1.473,0l24.836,14.342c0.455,0.263,0.736,0.749,0.736,1.275v28.673  C74.309,62.862,74.028,63.349,73.572,63.612z M26.11,33.663L48,46.299l21.89-12.636L48,21.023L26.11,33.663z M24.637,61.486  l21.89,12.641V48.85l-21.89-12.636V61.486z M71.363,61.486V36.214L49.473,48.85v25.276L71.363,61.486z"/>
</svg>