<svg xmlns="http://www.w3.org/2000/svg" version="1.1" viewBox="-5.0 -10.0 110.0 135.0">
 <path fill="#2f94c7" d="m24.816 74.18c-2.1758-0.039063-3.9062-0.77344-5.1992-1.9258-0.89453-0.79688-1.5703-1.7891-2.0391-2.8789-0.45703-1.0664-0.71094-2.2344-0.76172-3.4062-0.097656-2.1328 0.46484-4.2891 1.6602-5.9102-0.074218-0.16016-0.14453-0.32031-0.21094-0.48438-0.066406-0.16016-0.12891-0.32422-0.18359-0.49219-2.0078-0.69531-3.6445-2.2109-4.7578-4.1211-0.78516-1.3398-1.3125-2.8828-1.5352-4.4766-0.22266-1.5938-0.13281-3.2422 0.32422-4.7891 0.57031-1.9375 1.7109-3.707 3.5234-5.0156-1.2305-2.332-1.3242-4.7695-0.66406-6.8945 0.36719-1.1836 0.97656-2.2656 1.7539-3.1797 0.78125-0.91406 1.7422-1.6602 2.8164-2.1641 1.2422-0.58203 2.6211-0.83984 4.043-0.66016 0.20312-0.77344 0.52734-1.4883 0.94141-2.1211 0.76953-1.1797 1.8516-2.0898 3.0859-2.6602 1.2383-0.57031 2.6289-0.80469 4.0117-0.63672 1.0703 0.13281 2.1367 0.50391 3.1289 1.1484 0.28125 0.18359 0.43359 0.48828 0.43359 0.80078h0.003906v51.879c0 0.43359-0.28906 0.80078-0.68359 0.91797-1.7266 0.625-3.3789 0.76953-4.832 0.52344-1.2109-0.20703-2.2852-0.67969-3.1602-1.375-0.71484-0.55078-1.2891-1.2539-1.6992-2.0781zm11.984 5.7422c-0.082031-0.14062-0.19922-0.26172-0.35156-0.34766-0.45703-0.26172-1.0391-0.10547-1.3008 0.35156l-1.5039 2.6016c-0.011719 0.015625-0.019531 0.03125-0.03125 0.050781l-1.5312 2.6523c-0.082031 0.14062-0.12891 0.30469-0.12891 0.47656 0 0.52734 0.42578 0.95312 0.95312 0.95312h2.1094v4.7617c0 0.52734 0.42969 0.95703 0.95703 0.95703h12.438v3.5273c0 0.52734 0.42969 0.95703 0.95703 0.95703h20.84c0.52734 0 0.95703-0.42969 0.95703-0.95703v-3.5273h8.9336c0.52734 0 0.95703-0.42969 0.95703-0.95703v-7.3828l1.4023-2.4297h-0.003906l1.4883-2.5781c0.11328-0.15625 0.17578-0.34766 0.17578-0.55469 0-0.52734-0.42969-0.95703-0.95703-0.95703h-2.1094l0.003907-11.371h4.4258c0.52734 0 0.95703-0.42969 0.95703-0.95703v-10.766c0-0.52734-0.42969-0.95703-0.95703-0.95703h-4.4258v-9.3711l1.4023-2.4297h-0.003906l1.4883-2.5781c0.11328-0.15625 0.17578-0.34766 0.17578-0.55469 0-0.52734-0.42969-0.95703-0.95703-0.95703h-2.1094v-9.0469l6.9961-6.9961c0.37109-0.375 0.37109-0.98047 0-1.3516l-6.9961-6.9961 0.003907-4.5312c0-0.52734-0.42969-0.95703-0.95703-0.95703h-19.312l-2.2695-1.3086-2.5781-1.4883c-0.15625-0.11328-0.34766-0.17578-0.55469-0.17578-0.52734 0-0.95703 0.42969-0.95703 0.95703v2.0156h-13.012c-0.19922-1.1406-0.75-2.1602-1.5352-2.9453-1-1-2.3789-1.6172-3.9023-1.6172-1.5234 0-2.9023 0.61719-3.9023 1.6172s-1.6172 2.3789-1.6172 3.9023 0.61719 2.9023 1.6172 3.9023c0.78516 0.78516 1.8047 1.3359 2.9453 1.5352v5.5391c0 0.52734 0.42969 0.95703 0.95703 0.95703 0.52734 0 0.95703-0.42969 0.95703-0.95703v-5.5391c1.1406-0.19922 2.1602-0.75 2.9453-1.5352s1.3359-1.8047 1.5352-2.9453h13.012v2.1992h0.003907c0 0.16016 0.039062 0.32422 0.12891 0.47656 0.26172 0.45703 0.84375 0.61328 1.3008 0.35156l5.2422-3.0273h18.043v3.582l-6.9961 6.9961c-0.37109 0.375-0.37109 0.98047 0 1.3516l6.9961 6.9961v9.0469h-2.1094v0.003906c-0.16406 0-0.32812 0.042968-0.47656 0.12891-0.45703 0.26562-0.61328 0.84766-0.34766 1.3047l1.5312 2.6523h0.003906l1.3984 2.4258v9.3711h-4.4258c-0.52734 0-0.95703 0.42969-0.95703 0.95703v10.766c0 0.52734 0.42969 0.95703 0.95703 0.95703h4.4258v11.379h-2.1094v0.003906c-0.16406 0-0.32812 0.039063-0.47656 0.12891-0.45703 0.26563-0.61328 0.84766-0.34766 1.3047l1.5312 2.6523h0.003906l1.3984 2.4258v6.4297h-7.9766v-3.5273c0-0.52734-0.42969-0.95703-0.95703-0.95703l-20.844-0.007813c-0.52734 0-0.95703 0.42969-0.95703 0.95703v3.5273l-11.48-0.003906v-3.8086h2.1094c0.16016 0 0.32422-0.039062 0.47656-0.12891 0.45703-0.26172 0.61328-0.84375 0.35156-1.3008l-1.5039-2.6055c-0.007812-0.019532-0.019531-0.035156-0.027343-0.054688zm-0.11719 3.6094c0.007812 0.015625 0.019531 0.035156 0.03125 0.050781l0.67969 1.1758h-1.332c-0.027344-0.003906-0.054688-0.003906-0.082031-0.003906-0.027344 0-0.054688 0-0.085938 0.003906h-1.3281l0.70703-1.2227c0.011718-0.019531 0.019531-0.035156 0.027343-0.054687l0.67578-1.1719zm42.707-2.8672-0.003906-0.003906h0.003906l-0.70312-1.2188h2.8242l-0.70703 1.2227h-0.003907l-0.70703 1.2266zm0-39.941-0.003906-0.003906h0.003906l-0.70312-1.2188h2.8242l-0.70703 1.2227h-0.003907l-0.70703 1.2266zm3.668-22.816 2.9609 2.9609-5.9258 5.9258-5.9258-5.9258 5.9258-5.9258zm-25.496-8.4531-1.2227 0.70703v-2.8281l1.2227 0.70703 1.2266 0.70703zm11.691 78.445v7.0547h-18.93v-7.0547zm15.27-32.516v8.8516h-8.8516v-8.8516zm-45.996-49.277c0.65234 0.65234 1.0547 1.5547 1.0547 2.5508s-0.40234 1.8984-1.0547 2.5508c-0.65234 0.65234-1.5547 1.0547-2.5508 1.0547-0.99609 0-1.8984-0.40234-2.5508-1.0547-0.65234-0.65234-1.0547-1.5547-1.0547-2.5508s0.40234-1.8984 1.0547-2.5508c0.65234-0.65234 1.5547-1.0547 2.5508-1.0547 0.99609-0.003906 1.8984 0.39844 2.5508 1.0547zm5.168 61.641c-0.27734 0-0.52734-0.11328-0.71094-0.29297-0.17969-0.17969-0.29297-0.43359-0.29297-0.71094 0-0.27734 0.11328-0.52734 0.29297-0.71094 0.17969-0.17969 0.43359-0.29297 0.71094-0.29297 0.27734 0 0.52734 0.11328 0.71094 0.29297 0.17969 0.17969 0.29297 0.43359 0.29297 0.71094 0 0.27734-0.11328 0.52734-0.29297 0.71094-0.18359 0.17969-0.43359 0.29297-0.71094 0.29297zm2.0625 1.0586c0.52734-0.52734 0.85547-1.2578 0.85547-2.0625 0-0.80469-0.32422-1.5352-0.85547-2.0625-0.52734-0.52734-1.2578-0.85547-2.0625-0.85547-0.44531 0-0.86719 0.10156-1.2461 0.27734l-2.1719-2.0625c-0.17578-0.17969-0.41797-0.28906-0.6875-0.28906h-0.90234v-4.3281h4.9688l3.0039 2.8242c-0.17969 0.37891-0.27734 0.79688-0.27734 1.2422 0 0.80469 0.32422 1.5352 0.85547 2.0625 0.52734 0.52734 1.2578 0.85547 2.0625 0.85547 0.80469 0 1.5352-0.32812 2.0625-0.85547 0.52734-0.52734 0.85547-1.2578 0.85547-2.0625 0-0.80469-0.32422-1.5352-0.85547-2.0625-0.52734-0.52734-1.2578-0.85547-2.0625-0.85547-0.46875 0-0.91406 0.11328-1.3047 0.30859l-3.2852-3.0898c-0.16406-0.16406-0.39063-0.27344-0.63672-0.28125h-5.3828v-4.2891h10.863c0.14453 0.42188 0.38672 0.79688 0.69531 1.1055 0.52734 0.52734 1.2578 0.85547 2.0625 0.85547s1.5352-0.32422 2.0625-0.85547c0.52734-0.52734 0.85547-1.2578 0.85547-2.0625 0-0.80469-0.32422-1.5352-0.85547-2.0625-0.52734-0.52734-1.2578-0.85547-2.0625-0.85547s-1.5352 0.32422-2.0625 0.85547c-0.30859 0.30859-0.54688 0.68359-0.69531 1.1055l-10.871 0.003906v-4.293h5.3438c0.26953 0 0.51172-0.11328 0.6875-0.28906l3.9297-3.7344c0.42188 0.23828 0.90625 0.37109 1.4258 0.37109 0.80469 0 1.5352-0.32422 2.0625-0.85547 0.52734-0.52734 0.85547-1.2578 0.85547-2.0625 0-0.80469-0.32422-1.5352-0.85547-2.0625-0.52734-0.52734-1.2578-0.85547-2.0625-0.85547-0.80469 0-1.5352 0.32422-2.0625 0.85547-0.52734 0.52734-0.85547 1.2578-0.85547 2.0625 0 0.39844 0.078125 0.77344 0.22266 1.1211l-3.7227 3.5352h-4.9648v-4.7031h0.90234c0.26953 0 0.51172-0.10938 0.68359-0.28906l2.0742-1.9727c0.45703 0.30078 1.0039 0.47266 1.5938 0.47266 0.80469 0 1.5352-0.32422 2.0625-0.85547 0.52734-0.52734 0.85547-1.2578 0.85547-2.0625 0-0.80469-0.32812-1.5352-0.85547-2.0625s-1.2578-0.85547-2.0625-0.85547c-0.80469 0-1.5352 0.32422-2.0625 0.85547-0.52734 0.52734-0.85547 1.2578-0.85547 2.0625 0 0.32422 0.054687 0.63281 0.14844 0.92578l-1.9648 1.8672h-0.52734l0.007812-11.621c0.60938-0.32422 1.25-0.51562 1.8906-0.59375 1.0273-0.125 2.0586 0.050781 2.9727 0.47266 0.91406 0.42187 1.7148 1.0898 2.2773 1.957 0.42969 0.66406 0.72656 1.4453 0.83203 2.3281h0.003906c0.003907 0.046875 0.015626 0.09375 0.027344 0.13672 0.13672 0.50781 0.66016 0.80859 1.168 0.66797 1.707-0.46875 3.2852-0.12891 4.543 0.71484 0.66016 0.44141 1.2383 1.0195 1.707 1.6875 0.47656 0.67969 0.83984 1.4531 1.0664 2.2812 0.51953 1.9062 0.30469 4.082-0.96484 5.9844h0.003906c-0.011719 0.015625-0.023438 0.035156-0.03125 0.050781-0.26172 0.45703-0.10547 1.0391 0.35156 1.3008 1.8398 1.0586 2.9609 2.6562 3.4805 4.4258 0.37109 1.2617 0.44531 2.6172 0.26562 3.9375-0.17969 1.3281-0.61719 2.6172-1.2617 3.7383-0.94531 1.6406-2.3359 2.918-4.0195 3.4141-0.12891 0.039062-0.24609 0.10156-0.35547 0.19531-0.39844 0.34375-0.44141 0.94531-0.097656 1.3438 0.73047 0.84766 1.2148 2.4297 1.293 4.2305 0.058594 1.3125-0.10938 2.7227-0.55859 4.0391-0.4375 1.2773-1.1445 2.457-2.1758 3.3516-1.1133 0.96094-2.6211 1.6016-4.6055 1.6914-0.38281 0.011719-0.73438 0.25781-0.86719 0.64062-0.011718 0.035156 0.003907-0.011719-0.027343 0.070313-0.44141 1.207-1.3828 2.1094-2.625 2.5703-1.1992 0.44531-2.6797 0.48828-4.2969 0.019531l0.003906-11.855h0.52734l1.8711 1.7773c-0.19531 0.39062-0.30469 0.83203-0.30469 1.3008 0 0.80469 0.32422 1.5352 0.85547 2.0625 0.52734 0.52734 1.2578 0.85547 2.0625 0.85547 0.80078 0 1.5312-0.32812 2.0586-0.85547zm-1.1055-35.816c0.17969 0.17969 0.29297 0.43359 0.29297 0.71094 0 0.27734-0.11328 0.52734-0.29297 0.71094-0.17969 0.17969-0.43359 0.29297-0.71094 0.29297s-0.52734-0.11328-0.71094-0.29297c-0.17969-0.17969-0.29297-0.43359-0.29297-0.71094 0-0.27734 0.11328-0.52734 0.29297-0.71094 0.17969-0.17969 0.43359-0.29297 0.71094-0.29297 0.28125-0.003906 0.53125 0.10938 0.71094 0.29297zm4.6445 29.508c-0.27734 0-0.52734-0.11328-0.71094-0.29297-0.17969-0.17969-0.29297-0.43359-0.29297-0.71094 0-0.27734 0.11328-0.52734 0.29297-0.71094 0.17969-0.17969 0.43359-0.29297 0.71094-0.29297s0.52734 0.11328 0.71094 0.29297c0.17969 0.17969 0.29297 0.43359 0.29297 0.71094 0 0.27734-0.11328 0.52734-0.29297 0.71094-0.18359 0.17969-0.43359 0.29297-0.71094 0.29297zm1.4805-24.758c0.17969 0.17969 0.29297 0.43359 0.29297 0.71094 0 0.27734-0.11328 0.52734-0.29297 0.71094-0.17969 0.17969-0.43359 0.29297-0.71094 0.29297s-0.52734-0.11328-0.71094-0.29297c-0.17969-0.17969-0.29297-0.43359-0.29297-0.71094 0-0.27734 0.11328-0.52734 0.29297-0.71094 0.17969-0.17969 0.43359-0.29297 0.71094-0.29297 0.28125 0 0.53125 0.10938 0.71094 0.29297zm2.2344 11.816c0.17969 0.17969 0.29297 0.43359 0.29297 0.71094s-0.11328 0.52734-0.29297 0.71094c-0.17969 0.17969-0.43359 0.29297-0.71094 0.29297-0.27734 0-0.52734-0.11328-0.71094-0.29297-0.17969-0.17969-0.29297-0.43359-0.29297-0.71094s0.11328-0.52734 0.29297-0.71094c0.17969-0.17969 0.43359-0.29297 0.71094-0.29297 0.28125-0.003907 0.53125 0.10938 0.71094 0.29297zm-5.5859-23.891c0.41406 0.63672 0.73438 1.3477 0.94141 2.125 1.9023-0.26953 3.6484 0.20703 5.0898 1.168 0.85938 0.57422 1.6094 1.3203 2.2148 2.1875 0.59766 0.85547 1.0547 1.832 1.3398 2.8711 0.58203 2.1289 0.4375 4.5234-0.71484 6.7109 1.832 1.3047 2.9766 3.0742 3.5469 5.0156 0.44922 1.5273 0.53906 3.1523 0.32422 4.7305-0.21484 1.5703-0.73438 3.0977-1.5039 4.4297-0.96094 1.668-2.3125 3.0391-3.9609 3.8398 0.59375 1.1523 0.96875 2.6797 1.0391 4.3125 0.066406 1.5391-0.12891 3.1914-0.65625 4.7344-0.53906 1.5781-1.4258 3.0469-2.7344 4.1797-1.3008 1.125-2.9961 1.9023-5.1641 2.1133-0.69922 1.4961-1.9492 2.6172-3.5547 3.2109-1.707 0.63281-3.8086 0.65625-6.0508-0.125l-0.12109-0.042969c-0.40234-0.11328-0.69531-0.48047-0.69531-0.92188l0.007813-13.492v-38.387h0.003906c0-0.3125 0.15234-0.61719 0.43359-0.80078 0.99609-0.64844 2.0664-1.0195 3.1445-1.1484 1.3789-0.16797 2.7656 0.070312 3.9961 0.63672 1.2305 0.57031 2.3086 1.4766 3.0742 2.6523zm-19.195 17.523c0.52734-0.027344 0.97656 0.375 1.0039 0.90234s-0.375 0.97656-0.90234 1.0039c-1.0703 0.058594-1.7578 0.57031-2.1172 1.2695-0.23047 0.44141-0.34375 0.96094-0.35938 1.4922v0.10547 0.003906c0.003906 0.046875 0.003906 0.09375 0.003906 0.13672 0.015625 0.47656 0.10938 0.96094 0.27344 1.4141 0.36328 0.99219 1.0625 1.8008 2.0039 1.9492 0.51953 0.082031 0.875 0.57031 0.79297 1.0898-0.082032 0.51953-0.57031 0.875-1.0898 0.79297-1.6992-0.27344-2.918-1.5859-3.5-3.1836-0.12109-0.33203-0.21484-0.67187-0.27734-1.0234-1.793 0.41016-3.0469 1.5156-3.7891 2.9219-0.52734 1-0.80469 2.1523-0.84375 3.3242-0.039063 1.1836 0.16406 2.3828 0.60547 3.4727 0.77734 1.918 2.3008 3.4609 4.5234 3.8555 0.51953 0.089844 0.86719 0.58594 0.77734 1.1055-0.089844 0.51953-0.58594 0.86719-1.1055 0.77734-1.9727-0.35156-3.5234-1.3672-4.6367-2.7461-0.64062 1.168-0.9375 2.6016-0.87109 4.0352 0.042969 0.94531 0.24609 1.8828 0.61328 2.7422 0.35937 0.83594 0.875 1.5938 1.5508 2.1992 0.83984 0.74609 1.9414 1.2617 3.3164 1.4062-0.12109-0.80078-0.11719-1.6602 0.035156-2.5703 0.085938-0.51953 0.57812-0.87109 1.0977-0.78516 0.51953 0.085938 0.87109 0.57812 0.78516 1.0977-0.18359 1.0898-0.097656 2.0703 0.20703 2.8984 0.28125 0.76562 0.75391 1.4102 1.3633 1.8984 0.625 0.49609 1.4023 0.83594 2.2852 0.98828 0.98438 0.16797 2.1016 0.097656 3.2891-0.24609l0.003906-50.652c-0.60547-0.32031-1.2422-0.51562-1.8828-0.59375-1.0312-0.125-2.0625 0.046875-2.9805 0.47266-0.91797 0.42578-1.7227 1.0938-2.2852 1.9609-0.30078 0.46484-0.53906 0.98828-0.6875 1.5625 0.68359 0.27344 1.3672 0.65234 2.0352 1.1562 0.19141-0.16406 0.39844-0.30859 0.625-0.42969 0.64844-0.35156 1.4297-0.50391 2.293-0.37891 0.52344 0.074219 0.88672 0.55859 0.80859 1.082-0.074218 0.52344-0.55859 0.88672-1.082 0.80859-0.44141-0.0625-0.82031 0.003906-1.1211 0.16797-0.23047 0.125-0.42578 0.30469-0.57031 0.52734-0.15234 0.23438-0.25781 0.51172-0.30078 0.81641-0.074219 0.51562 0.023437 1.0977 0.32812 1.6641 0.25 0.46484 0.074219 1.043-0.38672 1.293-0.46484 0.25-1.043 0.074219-1.293-0.38672-0.51172-0.94531-0.66406-1.9414-0.53516-2.8398 0.035156-0.25391 0.097656-0.50391 0.17969-0.73828-2.0781-1.5938-4.2773-1.6797-6.0664-0.83984-0.82031 0.38281-1.5625 0.96094-2.1719 1.6758-0.61328 0.71484-1.0898 1.5703-1.3828 2.5078-0.77734 2.4961-0.19531 5.5781 2.7422 8.168 0.39453 0.34766 0.43359 0.95312 0.085938 1.3477-0.34766 0.39453-0.95312 0.43359-1.3477 0.085937-0.61328-0.53906-1.1406-1.1016-1.5898-1.6758-1.4023 1.0391-2.2891 2.4297-2.7383 3.9492-0.37891 1.2773-0.44922 2.6523-0.26172 3.9883 0.1875 1.3398 0.63281 2.6406 1.2969 3.7734 0.66797 1.1445 1.5508 2.1055 2.5977 2.7422-0.046875-0.46875-0.0625-0.94531-0.046875-1.4141 0.046875-1.457 0.39844-2.8984 1.0586-4.1523 1.043-1.9805 2.8359-3.5117 5.418-3.9766 0.078126-0.60547 0.25-1.1914 0.52344-1.7148 0.64844-1.2578 1.8555-2.1836 3.6992-2.2852z" fill-rule="evenodd"/>
</svg>